<svg width="771" height="366" viewBox="0 0 771 366" fill="none" xmlns="http://www.w3.org/2000/svg">
<g filter="url(#filter0_d)">
<rect x="5" y="4" width="360" height="160" rx="5" fill="#F8C252"/>
</g>
<path d="M30.08 35V22.4H32.834V32.57H38.468V35H30.08ZM45.7035 35.216C44.7315 35.216 43.9035 35.084 43.2195 34.82C42.5355 34.556 41.9715 34.16 41.5275 33.632C41.0955 33.092 40.7775 32.414 40.5735 31.598C40.3815 30.782 40.2855 29.816 40.2855 28.7C40.2855 27.584 40.3815 26.618 40.5735 25.802C40.7775 24.986 41.0955 24.314 41.5275 23.786C41.9715 23.246 42.5355 22.844 43.2195 22.58C43.9035 22.316 44.7315 22.184 45.7035 22.184C46.6755 22.184 47.5035 22.316 48.1875 22.58C48.8715 22.844 49.4295 23.246 49.8615 23.786C50.3055 24.314 50.6235 24.986 50.8155 25.802C51.0195 26.618 51.1215 27.584 51.1215 28.7C51.1215 29.816 51.0195 30.782 50.8155 31.598C50.6235 32.414 50.3055 33.092 49.8615 33.632C49.4295 34.16 48.8715 34.556 48.1875 34.82C47.5035 35.084 46.6755 35.216 45.7035 35.216ZM45.7395 32.804C46.2915 32.804 46.7355 32.714 47.0715 32.534C47.4075 32.342 47.6715 32.072 47.8635 31.724C48.0555 31.364 48.1815 30.932 48.2415 30.428C48.3135 29.912 48.3495 29.336 48.3495 28.7C48.3495 28.064 48.3135 27.494 48.2415 26.99C48.1815 26.474 48.0555 26.042 47.8635 25.694C47.6715 25.334 47.4075 25.064 47.0715 24.884C46.7355 24.692 46.2915 24.596 45.7395 24.596C45.1755 24.596 44.7135 24.692 44.3535 24.884C44.0055 25.064 43.7355 25.334 43.5435 25.694C43.3515 26.042 43.2195 26.474 43.1475 26.99C43.0875 27.494 43.0575 28.064 43.0575 28.7C43.0575 29.336 43.0875 29.912 43.1475 30.428C43.2195 30.932 43.3515 31.364 43.5435 31.724C43.7355 32.072 44.0055 32.342 44.3535 32.534C44.7135 32.714 45.1755 32.804 45.7395 32.804ZM60.1497 32.642H56.2077L55.5777 35H52.6617L56.8017 22.562L59.6277 22.238L63.8397 34.838L60.8517 35.162L60.1497 32.642ZM58.1517 25.496L56.7657 30.59H59.5737L58.1517 25.496ZM66.162 22.706C66.942 22.55 67.704 22.424 68.448 22.328C69.204 22.232 69.936 22.184 70.644 22.184C71.472 22.184 72.24 22.28 72.948 22.472C73.656 22.664 74.268 23.006 74.784 23.498C75.312 23.99 75.726 24.656 76.026 25.496C76.326 26.336 76.476 27.404 76.476 28.7C76.476 29.864 76.368 30.848 76.152 31.652C75.936 32.444 75.6 33.092 75.144 33.596C74.688 34.088 74.106 34.448 73.398 34.676C72.69 34.892 71.85 35 70.878 35H66.162V22.706ZM68.916 32.588C69.84 32.588 70.608 32.57 71.22 32.534C71.844 32.486 72.336 32.342 72.696 32.102C73.068 31.85 73.326 31.46 73.47 30.932C73.626 30.404 73.704 29.66 73.704 28.7C73.704 27.872 73.638 27.194 73.506 26.666C73.386 26.126 73.2 25.706 72.948 25.406C72.708 25.094 72.414 24.884 72.066 24.776C71.73 24.656 71.346 24.596 70.914 24.596C70.614 24.596 70.296 24.614 69.96 24.65C69.636 24.686 69.288 24.734 68.916 24.794V32.588ZM84.123 35V22.688C84.771 22.544 85.443 22.43 86.139 22.346C86.847 22.25 87.525 22.202 88.173 22.202C88.953 22.202 89.673 22.28 90.333 22.436C91.005 22.58 91.587 22.832 92.079 23.192C92.571 23.54 92.955 24.008 93.231 24.596C93.519 25.172 93.663 25.892 93.663 26.756C93.663 27.524 93.537 28.178 93.285 28.718C93.033 29.258 92.679 29.702 92.223 30.05C91.779 30.398 91.245 30.656 90.621 30.824C89.997 30.98 89.313 31.058 88.569 31.058C88.293 31.058 88.011 31.046 87.723 31.022C87.447 30.998 87.165 30.968 86.877 30.932V35H84.123ZM86.877 28.826C87.129 28.85 87.375 28.874 87.615 28.898C87.855 28.91 88.083 28.916 88.299 28.916C88.671 28.916 89.013 28.886 89.325 28.826C89.649 28.766 89.925 28.658 90.153 28.502C90.393 28.334 90.573 28.112 90.693 27.836C90.825 27.56 90.891 27.212 90.891 26.792C90.891 26.372 90.825 26.024 90.693 25.748C90.561 25.472 90.381 25.25 90.153 25.082C89.925 24.914 89.655 24.794 89.343 24.722C89.043 24.65 88.713 24.614 88.353 24.614C88.101 24.614 87.849 24.632 87.597 24.668C87.357 24.692 87.117 24.734 86.877 24.794V28.826ZM96.039 35V22.4H98.793V35H96.039ZM101.997 35L101.475 32.57L107.037 24.83H101.727V22.4H110.007L110.439 24.83L104.877 32.57H110.799L110.547 35H101.997ZM113.509 35L112.987 32.57L118.549 24.83H113.239V22.4H121.519L121.951 24.83L116.389 32.57H122.311L122.059 35H113.509ZM131.626 32.642H127.684L127.054 35H124.138L128.278 22.562L131.104 22.238L135.316 34.838L132.328 35.162L131.626 32.642ZM129.628 25.496L128.242 30.59H131.05L129.628 25.496Z" fill="black"/>
<path d="M250.191 64V59.98H256.041V47.8L250.431 48.1L249.921 44.38L260.601 43V59.98H265.821V64H250.191ZM272.261 59.23C273.001 59.63 273.771 59.92 274.571 60.1C275.391 60.26 276.211 60.34 277.031 60.34C277.871 60.34 278.571 60.23 279.131 60.01C279.691 59.79 280.141 59.47 280.481 59.05C280.841 58.61 281.101 58.07 281.261 57.43C281.421 56.77 281.521 56 281.561 55.12C280.981 55.82 280.261 56.33 279.401 56.65C278.541 56.95 277.471 57.1 276.191 57.1C273.991 57.1 272.281 56.5 271.061 55.3C269.861 54.1 269.261 52.46 269.261 50.38C269.261 49.26 269.421 48.23 269.741 47.29C270.061 46.35 270.551 45.54 271.211 44.86C271.871 44.16 272.721 43.62 273.761 43.24C274.801 42.84 276.041 42.64 277.481 42.64C280.581 42.64 282.801 43.53 284.141 45.31C285.501 47.07 286.181 49.8 286.181 53.5C286.181 55.36 285.961 56.98 285.521 58.36C285.101 59.72 284.511 60.85 283.751 61.75C282.991 62.63 282.091 63.29 281.051 63.73C280.011 64.15 278.881 64.36 277.661 64.36C276.281 64.36 275.001 64.24 273.821 64C272.661 63.78 271.571 63.36 270.551 62.74L272.261 59.23ZM281.531 51.49C281.491 50.71 281.391 50.02 281.231 49.42C281.071 48.82 280.831 48.32 280.511 47.92C280.191 47.5 279.781 47.19 279.281 46.99C278.781 46.77 278.171 46.66 277.451 46.66C276.791 46.66 276.221 46.76 275.741 46.96C275.281 47.14 274.901 47.4 274.601 47.74C274.301 48.06 274.081 48.45 273.941 48.91C273.801 49.35 273.731 49.83 273.731 50.35C273.731 51.55 274.021 52.4 274.601 52.9C275.201 53.4 276.101 53.65 277.301 53.65C278.201 53.65 279.011 53.48 279.731 53.14C280.471 52.8 281.071 52.25 281.531 51.49ZM289.742 57.01V52.84H299.432V57.01H289.742ZM314.056 60.07H307.486L306.436 64H301.576L308.476 43.27L313.186 42.73L320.206 63.73L315.226 64.27L314.056 60.07ZM310.726 48.16L308.416 56.65H313.096L310.726 48.16ZM330.659 64.36C327.459 64.36 324.769 63.68 322.589 62.32L324.209 58.84C325.129 59.32 326.109 59.69 327.149 59.95C328.189 60.21 329.289 60.34 330.449 60.34C331.049 60.34 331.589 60.29 332.069 60.19C332.569 60.09 332.989 59.92 333.329 59.68C333.669 59.44 333.929 59.12 334.109 58.72C334.309 58.32 334.409 57.83 334.409 57.25C334.409 56.29 334.029 55.59 333.269 55.15C332.529 54.71 331.529 54.49 330.269 54.49C329.869 54.49 329.449 54.52 329.009 54.58C328.569 54.62 328.009 54.69 327.329 54.79L326.399 51.28L332.639 47.02H323.459V43H337.319L338.249 47.02L331.289 51.73C332.669 51.73 333.849 51.89 334.829 52.21C335.809 52.51 336.609 52.93 337.229 53.47C337.849 54.01 338.299 54.65 338.579 55.39C338.859 56.11 338.999 56.89 338.999 57.73C338.999 59.79 338.299 61.41 336.899 62.59C335.519 63.77 333.439 64.36 330.659 64.36Z" fill="black"/>
<path d="M319.679 133.83C318.619 134.47 317.599 134.88 316.619 135.06C315.639 135.26 314.619 135.36 313.559 135.36C311.939 135.36 310.559 135.14 309.419 134.7C308.279 134.26 307.339 133.6 306.599 132.72C305.879 131.82 305.349 130.69 305.009 129.33C304.689 127.97 304.529 126.36 304.529 124.5C304.529 122.64 304.689 121.03 305.009 119.67C305.349 118.31 305.879 117.19 306.599 116.31C307.339 115.41 308.279 114.74 309.419 114.3C310.559 113.86 311.939 113.64 313.559 113.64C314.619 113.64 315.639 113.74 316.619 113.94C317.599 114.12 318.619 114.53 319.679 115.17L318.119 118.74C317.359 118.34 316.609 118.07 315.869 117.93C315.149 117.77 314.399 117.69 313.619 117.69C312.679 117.69 311.909 117.85 311.309 118.17C310.729 118.47 310.279 118.92 309.959 119.52C309.639 120.1 309.419 120.81 309.299 121.65C309.199 122.49 309.149 123.44 309.149 124.5C309.149 125.56 309.199 126.52 309.299 127.38C309.419 128.22 309.639 128.93 309.959 129.51C310.279 130.09 310.729 130.54 311.309 130.86C311.909 131.16 312.679 131.31 313.619 131.31C314.399 131.31 315.149 131.24 315.869 131.1C316.609 130.94 317.359 130.66 318.119 130.26L319.679 133.83ZM323.579 135V130.98H329.429V118.8L323.819 119.1L323.309 115.38L333.989 114V130.98H339.209V135H323.579Z" fill="black"/>
<path d="M263.118 32.348C263.566 32.6187 264.051 32.8287 264.574 32.978C265.097 33.118 265.638 33.188 266.198 33.188C266.506 33.188 266.791 33.16 267.052 33.104C267.323 33.0387 267.556 32.9313 267.752 32.782C267.948 32.6327 268.102 32.4413 268.214 32.208C268.326 31.9653 268.382 31.6667 268.382 31.312C268.382 31.004 268.312 30.7567 268.172 30.57C268.032 30.3833 267.845 30.2293 267.612 30.108C267.379 29.9773 267.113 29.87 266.814 29.786C266.515 29.6927 266.207 29.5993 265.89 29.506C265.545 29.4033 265.199 29.2867 264.854 29.156C264.509 29.0253 264.196 28.8573 263.916 28.652C263.645 28.4373 263.421 28.176 263.244 27.868C263.076 27.56 262.992 27.1773 262.992 26.72C262.992 26.244 263.071 25.838 263.23 25.502C263.389 25.166 263.608 24.8907 263.888 24.676C264.168 24.452 264.495 24.2887 264.868 24.186C265.241 24.0833 265.643 24.032 266.072 24.032C266.576 24.032 267.066 24.074 267.542 24.158C268.027 24.242 268.48 24.3913 268.9 24.606L268.536 25.558C268.163 25.362 267.775 25.222 267.374 25.138C266.973 25.054 266.567 25.012 266.156 25.012C265.857 25.012 265.582 25.04 265.33 25.096C265.078 25.152 264.859 25.2453 264.672 25.376C264.485 25.5067 264.336 25.6793 264.224 25.894C264.121 26.1087 264.07 26.3747 264.07 26.692C264.07 26.9813 264.126 27.2193 264.238 27.406C264.359 27.5927 264.518 27.756 264.714 27.896C264.919 28.0267 265.157 28.1387 265.428 28.232C265.699 28.316 265.983 28.4047 266.282 28.498C266.637 28.61 267.001 28.7313 267.374 28.862C267.757 28.9833 268.102 29.1467 268.41 29.352C268.718 29.5573 268.97 29.8187 269.166 30.136C269.371 30.4533 269.474 30.85 269.474 31.326C269.474 31.8113 269.395 32.236 269.236 32.6C269.087 32.9547 268.867 33.2487 268.578 33.482C268.298 33.7153 267.957 33.888 267.556 34C267.155 34.112 266.711 34.168 266.226 34.168C265.545 34.168 264.905 34.0933 264.308 33.944C263.711 33.7947 263.183 33.5753 262.726 33.286L263.118 32.348ZM271.507 34V24.354C271.927 24.2513 272.357 24.172 272.795 24.116C273.243 24.06 273.682 24.032 274.111 24.032C274.699 24.032 275.236 24.088 275.721 24.2C276.216 24.312 276.641 24.5033 276.995 24.774C277.359 25.0353 277.639 25.3853 277.835 25.824C278.041 26.2627 278.143 26.8087 278.143 27.462C278.143 28.078 278.036 28.596 277.821 29.016C277.616 29.4267 277.331 29.758 276.967 30.01C276.613 30.262 276.197 30.444 275.721 30.556C275.255 30.6587 274.76 30.71 274.237 30.71C273.967 30.71 273.691 30.7007 273.411 30.682C273.131 30.654 272.856 30.6167 272.585 30.57V34H271.507ZM272.585 29.632C273.061 29.716 273.556 29.758 274.069 29.758C274.527 29.758 274.937 29.7253 275.301 29.66C275.675 29.5947 275.987 29.478 276.239 29.31C276.501 29.1327 276.701 28.8993 276.841 28.61C276.981 28.3113 277.051 27.938 277.051 27.49C277.051 27.0047 276.977 26.6033 276.827 26.286C276.687 25.9687 276.491 25.7167 276.239 25.53C275.987 25.334 275.684 25.1987 275.329 25.124C274.984 25.0493 274.611 25.012 274.209 25.012C273.929 25.012 273.649 25.026 273.369 25.054C273.099 25.082 272.837 25.1287 272.585 25.194V29.632ZM279.91 34V24.2H285.566V25.18H280.988V28.288H284.74L284.642 29.268H280.988V33.02H285.566V34H279.91ZM287.82 34V24.2H293.476V25.18H288.898V28.288H292.65L292.552 29.268H288.898V33.02H293.476V34H287.82ZM295.73 24.368C296.299 24.2653 296.859 24.186 297.41 24.13C297.961 24.0647 298.493 24.032 299.006 24.032C299.594 24.032 300.135 24.102 300.63 24.242C301.134 24.382 301.568 24.6387 301.932 25.012C302.296 25.3853 302.581 25.9033 302.786 26.566C303.001 27.2193 303.108 28.064 303.108 29.1C303.108 30.0147 303.024 30.7847 302.856 31.41C302.697 32.026 302.45 32.53 302.114 32.922C301.787 33.3047 301.367 33.58 300.854 33.748C300.341 33.916 299.734 34 299.034 34H295.73V24.368ZM299.034 33.02C299.547 33.02 299.991 32.964 300.364 32.852C300.747 32.74 301.059 32.5393 301.302 32.25C301.545 31.9513 301.722 31.55 301.834 31.046C301.955 30.5327 302.016 29.884 302.016 29.1C302.016 28.2507 301.941 27.56 301.792 27.028C301.652 26.496 301.451 26.0807 301.19 25.782C300.938 25.4833 300.63 25.2827 300.266 25.18C299.902 25.068 299.501 25.012 299.062 25.012C298.707 25.012 298.334 25.0307 297.942 25.068C297.55 25.096 297.172 25.1427 296.808 25.208V33.02H299.034ZM311.969 29.436C312.595 29.436 313.099 29.2587 313.481 28.904C313.864 28.5493 314.055 28.022 314.055 27.322C314.055 26.8833 313.99 26.5147 313.859 26.216C313.729 25.9173 313.547 25.6793 313.313 25.502C313.08 25.3247 312.8 25.1987 312.473 25.124C312.147 25.0493 311.787 25.012 311.395 25.012C311.125 25.012 310.849 25.0307 310.569 25.068C310.289 25.1053 310.014 25.1567 309.743 25.222V29.436H311.969ZM312.179 30.416H309.743V34H308.665V24.354C309.085 24.2513 309.524 24.172 309.981 24.116C310.439 24.06 310.891 24.032 311.339 24.032C311.871 24.032 312.371 24.088 312.837 24.2C313.304 24.3027 313.705 24.4847 314.041 24.746C314.387 24.998 314.657 25.3387 314.853 25.768C315.049 26.188 315.147 26.72 315.147 27.364C315.147 27.7747 315.096 28.134 314.993 28.442C314.9 28.75 314.765 29.016 314.587 29.24C314.41 29.464 314.2 29.6507 313.957 29.8C313.715 29.94 313.453 30.0473 313.173 30.122L315.413 33.86L314.265 34.126L312.179 30.416ZM322.27 31.704H318.462L317.762 34H316.6L319.834 24.256L320.926 24.13L324.188 33.93L323.012 34.07L322.27 31.704ZM320.366 25.516L318.756 30.766H321.99L320.366 25.516ZM332.333 33.538C331.941 33.7993 331.507 33.9673 331.031 34.042C330.564 34.126 330.079 34.168 329.575 34.168C329.015 34.168 328.497 34.0887 328.021 33.93C327.554 33.762 327.148 33.4867 326.803 33.104C326.467 32.712 326.205 32.194 326.019 31.55C325.832 30.8967 325.739 30.08 325.739 29.1C325.739 28.12 325.832 27.308 326.019 26.664C326.205 26.0107 326.467 25.4927 326.803 25.11C327.148 24.718 327.554 24.4427 328.021 24.284C328.497 24.116 329.015 24.032 329.575 24.032C330.079 24.032 330.564 24.074 331.031 24.158C331.507 24.2327 331.941 24.4007 332.333 24.662L331.899 25.572C331.544 25.3573 331.175 25.2127 330.793 25.138C330.41 25.054 330.023 25.012 329.631 25.012C329.201 25.012 328.814 25.0633 328.469 25.166C328.123 25.2687 327.829 25.4693 327.587 25.768C327.344 26.0667 327.157 26.482 327.027 27.014C326.896 27.546 326.831 28.2413 326.831 29.1C326.831 29.9587 326.896 30.654 327.027 31.186C327.157 31.718 327.344 32.1333 327.587 32.432C327.829 32.7307 328.123 32.9313 328.469 33.034C328.814 33.1367 329.201 33.188 329.631 33.188C330.023 33.188 330.41 33.1507 330.793 33.076C331.175 32.992 331.544 32.8427 331.899 32.628L332.333 33.538ZM335.374 29.17V34H334.296V24.2H335.374V28.806L339.49 24.102L340.456 24.55L336.536 28.96L340.778 33.608L339.77 34.14L335.374 29.17Z" fill="black"/>
<path d="M310.736 106.188C311.352 106.188 311.847 106.095 312.22 105.908C312.593 105.721 312.883 105.455 313.088 105.11C313.293 104.755 313.429 104.326 313.494 103.822C313.569 103.309 313.606 102.735 313.606 102.1C313.606 101.465 313.569 100.896 313.494 100.392C313.429 99.8787 313.293 99.4493 313.088 99.104C312.883 98.7493 312.593 98.4787 312.22 98.292C311.847 98.1053 311.352 98.012 310.736 98.012C310.12 98.012 309.625 98.1053 309.252 98.292C308.879 98.4787 308.589 98.7493 308.384 99.104C308.179 99.4493 308.039 99.8787 307.964 100.392C307.899 100.896 307.866 101.465 307.866 102.1C307.866 102.735 307.899 103.309 307.964 103.822C308.039 104.326 308.179 104.755 308.384 105.11C308.589 105.455 308.879 105.721 309.252 105.908C309.625 106.095 310.12 106.188 310.736 106.188ZM310.736 107.168C310.027 107.168 309.42 107.065 308.916 106.86C308.412 106.655 308.001 106.347 307.684 105.936C307.367 105.516 307.133 104.989 306.984 104.354C306.844 103.719 306.774 102.968 306.774 102.1C306.774 101.232 306.844 100.481 306.984 99.846C307.133 99.2113 307.367 98.6887 307.684 98.278C308.001 97.858 308.412 97.5453 308.916 97.34C309.42 97.1347 310.027 97.032 310.736 97.032C311.445 97.032 312.052 97.1347 312.556 97.34C313.06 97.5453 313.471 97.858 313.788 98.278C314.105 98.6887 314.334 99.2113 314.474 99.846C314.623 100.481 314.698 101.232 314.698 102.1C314.698 102.968 314.623 103.719 314.474 104.354C314.334 104.989 314.105 105.516 313.788 105.936C313.471 106.347 313.06 106.655 312.556 106.86C312.052 107.065 311.445 107.168 310.736 107.168ZM319.069 107L315.835 97.312L316.983 97.088L319.643 105.67L322.275 97.088L323.367 97.326L320.161 107H319.069ZM325.142 107V97.2H330.798V98.18H326.22V101.288H329.972L329.874 102.268H326.22V106.02H330.798V107H325.142ZM338.862 107L334.032 98.866V107H333.052V97.354L334.242 97.116L339.044 105.208V97.2H340.024V107H338.862Z" fill="black"/>
<path d="M34.832 64V48.88H29.912V47.2H41.6V48.88H36.68V64H34.832ZM52.1714 64V57.232C52.1714 56.56 52.1474 55.952 52.0994 55.408C52.0674 54.864 51.9554 54.4 51.7634 54.016C51.5874 53.632 51.3154 53.336 50.9474 53.128C50.5794 52.92 50.0754 52.816 49.4354 52.816C48.9874 52.816 48.5874 52.872 48.2354 52.984C47.8994 53.096 47.5954 53.264 47.3234 53.488C47.0514 53.696 46.8034 53.952 46.5794 54.256C46.3554 54.56 46.1474 54.912 45.9554 55.312V64H44.1794V47.008L45.9554 46.768V53.128C46.3074 52.52 46.7874 52.072 47.3954 51.784C48.0194 51.48 48.8114 51.328 49.7714 51.328C50.6674 51.328 51.3874 51.48 51.9314 51.784C52.4754 52.088 52.8994 52.504 53.2034 53.032C53.5074 53.544 53.7074 54.136 53.8034 54.808C53.8994 55.48 53.9474 56.176 53.9474 56.896V64H52.1714ZM62.0375 64.288C60.1015 64.288 58.7175 63.76 57.8855 62.704C57.0535 61.648 56.6375 60.016 56.6375 57.808C56.6375 55.6 57.0535 53.968 57.8855 52.912C58.7175 51.856 60.1015 51.328 62.0375 51.328C63.9735 51.328 65.3575 51.856 66.1895 52.912C67.0215 53.968 67.4375 55.6 67.4375 57.808C67.4375 60.016 67.0215 61.648 66.1895 62.704C65.3575 63.76 63.9735 64.288 62.0375 64.288ZM62.0375 62.776C62.8055 62.776 63.4215 62.664 63.8855 62.44C64.3655 62.216 64.7335 61.888 64.9895 61.456C65.2455 61.024 65.4135 60.504 65.4935 59.896C65.5895 59.272 65.6375 58.576 65.6375 57.808C65.6375 57.04 65.5895 56.352 65.4935 55.744C65.4135 55.12 65.2455 54.592 64.9895 54.16C64.7335 53.728 64.3655 53.4 63.8855 53.176C63.4215 52.952 62.8055 52.84 62.0375 52.84C61.2695 52.84 60.6455 52.952 60.1655 53.176C59.7015 53.4 59.3415 53.728 59.0855 54.16C58.8295 54.592 58.6535 55.12 58.5575 55.744C58.4775 56.352 58.4375 57.04 58.4375 57.808C58.4375 58.576 58.4775 59.272 58.5575 59.896C58.6535 60.504 58.8295 61.024 59.0855 61.456C59.3415 61.888 59.7015 62.216 60.1655 62.44C60.6455 62.664 61.2695 62.776 62.0375 62.776ZM85.8408 64V57.232C85.8408 56.56 85.8168 55.952 85.7688 55.408C85.7368 54.864 85.6328 54.4 85.4568 54.016C85.2808 53.632 85.0168 53.336 84.6648 53.128C84.3128 52.92 83.8248 52.816 83.2008 52.816C82.3368 52.816 81.6568 53.032 81.1608 53.464C80.6648 53.896 80.2248 54.512 79.8408 55.312V64H78.0648V55.912C78.0648 55.48 78.0248 55.08 77.9448 54.712C77.8808 54.328 77.7528 54 77.5608 53.728C77.3688 53.44 77.0968 53.216 76.7448 53.056C76.4088 52.896 75.9688 52.816 75.4248 52.816C74.5608 52.816 73.8808 53.032 73.3848 53.464C72.8888 53.896 72.4488 54.512 72.0648 55.312V64H70.2888V56.104C70.2888 55.352 70.2568 54.616 70.1928 53.896C70.1448 53.176 70.0328 52.48 69.8568 51.808L71.3448 51.472C71.5528 52.064 71.7208 52.68 71.8488 53.32C72.2168 52.664 72.7128 52.168 73.3368 51.832C73.9608 51.496 74.7768 51.328 75.7848 51.328C76.7768 51.328 77.5448 51.52 78.0888 51.904C78.6488 52.288 79.0648 52.808 79.3368 53.464C79.7848 52.728 80.3448 52.192 81.0168 51.856C81.6888 51.504 82.5368 51.328 83.5608 51.328C84.4248 51.328 85.1208 51.48 85.6488 51.784C86.1928 52.088 86.6088 52.504 86.8968 53.032C87.1848 53.544 87.3768 54.136 87.4728 54.808C87.5688 55.48 87.6168 56.176 87.6168 56.896V64H85.8408ZM100.785 54.688C101.185 54.688 101.601 54.664 102.033 54.616C102.481 54.568 102.889 54.456 103.257 54.28C103.625 54.088 103.929 53.808 104.169 53.44C104.409 53.072 104.529 52.56 104.529 51.904C104.529 51.232 104.409 50.68 104.169 50.248C103.945 49.816 103.633 49.472 103.233 49.216C102.849 48.96 102.393 48.784 101.865 48.688C101.337 48.592 100.785 48.544 100.209 48.544C99.7448 48.544 99.2728 48.576 98.7928 48.64C98.3288 48.704 97.8888 48.776 97.4728 48.856V54.688H100.785ZM99.6568 62.368C100.585 62.368 101.385 62.344 102.057 62.296C102.745 62.232 103.313 62.104 103.761 61.912C104.209 61.704 104.545 61.392 104.769 60.976C104.993 60.56 105.105 59.992 105.105 59.272C105.105 58.632 104.993 58.12 104.769 57.736C104.545 57.352 104.241 57.056 103.857 56.848C103.473 56.64 103.033 56.504 102.537 56.44C102.041 56.36 101.529 56.32 101.001 56.32H97.4728V62.368H99.6568ZM95.6248 47.464C96.2968 47.32 97.0248 47.192 97.8088 47.08C98.6088 46.968 99.4008 46.912 100.185 46.912C100.985 46.912 101.753 46.984 102.489 47.128C103.241 47.272 103.897 47.528 104.457 47.896C105.033 48.264 105.489 48.76 105.825 49.384C106.177 50.008 106.353 50.792 106.353 51.736C106.353 52.824 106.081 53.672 105.537 54.28C105.009 54.888 104.329 55.256 103.497 55.384C103.913 55.432 104.329 55.544 104.745 55.72C105.177 55.896 105.561 56.152 105.897 56.488C106.233 56.808 106.505 57.216 106.713 57.712C106.937 58.208 107.049 58.792 107.049 59.464C107.049 61.096 106.577 62.264 105.633 62.968C104.689 63.656 103.305 64 101.481 64H95.6248V47.464ZM118.549 63.184C117.925 63.6 117.261 63.888 116.557 64.048C115.869 64.208 115.149 64.288 114.397 64.288C113.581 64.288 112.837 64.192 112.165 64C111.509 63.808 110.941 63.472 110.461 62.992C109.997 62.496 109.637 61.832 109.381 61C109.125 60.152 108.997 59.088 108.997 57.808C108.997 56.464 109.141 55.376 109.429 54.544C109.717 53.696 110.093 53.032 110.557 52.552C111.037 52.072 111.589 51.752 112.213 51.592C112.837 51.416 113.485 51.328 114.157 51.328C114.941 51.328 115.637 51.432 116.245 51.64C116.853 51.848 117.365 52.216 117.781 52.744C118.197 53.256 118.517 53.952 118.741 54.832C118.965 55.696 119.077 56.784 119.077 58.096V58.312L110.821 58.984C110.837 59.704 110.925 60.312 111.085 60.808C111.261 61.288 111.501 61.68 111.805 61.984C112.109 62.272 112.477 62.48 112.909 62.608C113.341 62.72 113.837 62.776 114.397 62.776C115.037 62.776 115.637 62.704 116.197 62.56C116.773 62.4 117.341 62.152 117.901 61.816L118.549 63.184ZM117.325 56.968C117.309 56.184 117.229 55.528 117.085 55C116.941 54.472 116.733 54.048 116.461 53.728C116.189 53.408 115.853 53.184 115.453 53.056C115.069 52.912 114.637 52.84 114.157 52.84C113.629 52.84 113.157 52.92 112.741 53.08C112.325 53.224 111.973 53.472 111.685 53.824C111.397 54.176 111.173 54.64 111.013 55.216C110.853 55.792 110.773 56.496 110.773 57.328V57.592L117.325 56.968ZM139.278 62.944C138.398 63.44 137.462 63.792 136.47 64C135.494 64.192 134.478 64.288 133.422 64.288C132.286 64.288 131.278 64.152 130.398 63.88C129.534 63.608 128.806 63.144 128.214 62.488C127.622 61.816 127.166 60.92 126.846 59.8C126.542 58.68 126.39 57.28 126.39 55.6C126.39 54.016 126.574 52.672 126.942 51.568C127.326 50.464 127.838 49.568 128.478 48.88C129.134 48.192 129.894 47.696 130.758 47.392C131.622 47.072 132.534 46.912 133.494 46.912C134.358 46.912 135.198 46.976 136.014 47.104C136.846 47.216 137.686 47.496 138.534 47.944L137.766 49.504C137.062 49.136 136.358 48.896 135.654 48.784C134.95 48.656 134.23 48.592 133.494 48.592C132.678 48.592 131.95 48.72 131.31 48.976C130.67 49.216 130.118 49.616 129.654 50.176C129.206 50.72 128.862 51.44 128.622 52.336C128.382 53.216 128.262 54.304 128.262 55.6C128.262 56.944 128.35 58.064 128.526 58.96C128.702 59.856 128.99 60.576 129.39 61.12C129.806 61.648 130.342 62.032 130.998 62.272C131.67 62.496 132.494 62.608 133.47 62.608C134.158 62.608 134.838 62.56 135.51 62.464C136.198 62.352 136.838 62.144 137.43 61.84V57.28H133.134V55.6H139.278V62.944ZM147.209 64.288C145.273 64.288 143.889 63.76 143.057 62.704C142.225 61.648 141.809 60.016 141.809 57.808C141.809 55.6 142.225 53.968 143.057 52.912C143.889 51.856 145.273 51.328 147.209 51.328C149.145 51.328 150.529 51.856 151.361 52.912C152.193 53.968 152.609 55.6 152.609 57.808C152.609 60.016 152.193 61.648 151.361 62.704C150.529 63.76 149.145 64.288 147.209 64.288ZM147.209 62.776C147.977 62.776 148.593 62.664 149.057 62.44C149.537 62.216 149.905 61.888 150.161 61.456C150.417 61.024 150.585 60.504 150.665 59.896C150.761 59.272 150.809 58.576 150.809 57.808C150.809 57.04 150.761 56.352 150.665 55.744C150.585 55.12 150.417 54.592 150.161 54.16C149.905 53.728 149.537 53.4 149.057 53.176C148.593 52.952 147.977 52.84 147.209 52.84C146.441 52.84 145.817 52.952 145.337 53.176C144.873 53.4 144.513 53.728 144.257 54.16C144.001 54.592 143.825 55.12 143.729 55.744C143.649 56.352 143.609 57.04 143.609 57.808C143.609 58.576 143.649 59.272 143.729 59.896C143.825 60.504 144.001 61.024 144.257 61.456C144.513 61.888 144.873 62.216 145.337 62.44C145.817 62.664 146.441 62.776 147.209 62.776ZM160.405 64.288C158.469 64.288 157.085 63.76 156.253 62.704C155.421 61.648 155.005 60.016 155.005 57.808C155.005 55.6 155.421 53.968 156.253 52.912C157.085 51.856 158.469 51.328 160.405 51.328C162.341 51.328 163.725 51.856 164.557 52.912C165.389 53.968 165.805 55.6 165.805 57.808C165.805 60.016 165.389 61.648 164.557 62.704C163.725 63.76 162.341 64.288 160.405 64.288ZM160.405 62.776C161.173 62.776 161.789 62.664 162.253 62.44C162.733 62.216 163.101 61.888 163.357 61.456C163.613 61.024 163.781 60.504 163.861 59.896C163.957 59.272 164.005 58.576 164.005 57.808C164.005 57.04 163.957 56.352 163.861 55.744C163.781 55.12 163.613 54.592 163.357 54.16C163.101 53.728 162.733 53.4 162.253 53.176C161.789 52.952 161.173 52.84 160.405 52.84C159.637 52.84 159.013 52.952 158.533 53.176C158.069 53.4 157.709 53.728 157.453 54.16C157.197 54.592 157.021 55.12 156.925 55.744C156.845 56.352 156.805 57.04 156.805 57.808C156.805 58.576 156.845 59.272 156.925 59.896C157.021 60.504 157.197 61.024 157.453 61.456C157.709 61.888 158.069 62.216 158.533 62.44C159.013 62.664 159.637 62.776 160.405 62.776ZM177.152 64.144C176.944 63.552 176.776 62.936 176.648 62.296C176.28 62.952 175.768 63.448 175.112 63.784C174.472 64.12 173.656 64.288 172.664 64.288C171.096 64.288 169.96 63.752 169.256 62.68C168.552 61.592 168.2 59.968 168.2 57.808C168.2 56.464 168.344 55.368 168.632 54.52C168.92 53.672 169.304 53.016 169.784 52.552C170.264 52.072 170.8 51.752 171.392 51.592C172 51.416 172.616 51.328 173.24 51.328C173.848 51.328 174.416 51.384 174.944 51.496C175.472 51.592 175.992 51.776 176.504 52.048C176.472 51.632 176.448 51.216 176.432 50.8C176.432 50.384 176.432 49.968 176.432 49.552V47.008L178.208 46.768V59.512C178.208 60.264 178.232 61 178.28 61.72C178.344 62.44 178.464 63.136 178.64 63.808L177.152 64.144ZM176.432 53.56C175.936 53.288 175.432 53.096 174.92 52.984C174.424 52.872 173.92 52.816 173.408 52.816C172.88 52.816 172.4 52.888 171.968 53.032C171.552 53.16 171.192 53.416 170.888 53.8C170.6 54.168 170.376 54.68 170.216 55.336C170.072 55.976 170 56.8 170 57.808C170 58.576 170.04 59.272 170.12 59.896C170.2 60.504 170.344 61.024 170.552 61.456C170.776 61.888 171.08 62.224 171.464 62.464C171.848 62.688 172.344 62.8 172.952 62.8C173.848 62.8 174.552 62.584 175.064 62.152C175.576 61.72 176.032 61.104 176.432 60.304V53.56Z" fill="black"/>
<path d="M322 76V82" stroke="black" stroke-linecap="square"/>
<path fill-rule="evenodd" clip-rule="evenodd" d="M326 82L322.211 86L318 82H326Z" fill="black"/>
<path opacity="0.380038" d="M81.376 135V131.784H86.056V122.04L81.568 122.28L81.16 119.304L89.704 118.2V131.784H93.88V135H81.376ZM105.924 135.288C103.364 135.288 101.212 134.744 99.4679 133.656L100.764 130.872C101.5 131.256 102.284 131.552 103.116 131.76C103.948 131.968 104.828 132.072 105.756 132.072C106.236 132.072 106.668 132.032 107.052 131.952C107.452 131.872 107.788 131.736 108.06 131.544C108.332 131.352 108.54 131.096 108.684 130.776C108.844 130.456 108.924 130.064 108.924 129.6C108.924 128.832 108.62 128.272 108.012 127.92C107.42 127.568 106.62 127.392 105.612 127.392C105.292 127.392 104.956 127.416 104.604 127.464C104.252 127.496 103.804 127.552 103.26 127.632L102.516 124.824L107.508 121.416H100.164V118.2H111.252L111.996 121.416L106.428 125.184C107.532 125.184 108.476 125.312 109.26 125.568C110.044 125.808 110.684 126.144 111.18 126.576C111.676 127.008 112.036 127.52 112.26 128.112C112.484 128.688 112.596 129.312 112.596 129.984C112.596 131.632 112.036 132.928 110.916 133.872C109.812 134.816 108.148 135.288 105.924 135.288ZM119.264 135L118.616 131.784C119.656 131.128 120.656 130.464 121.616 129.792C122.592 129.104 123.456 128.416 124.208 127.728C124.96 127.024 125.56 126.328 126.008 125.64C126.456 124.952 126.68 124.28 126.68 123.624C126.68 122.728 126.464 122.096 126.032 121.728C125.616 121.344 124.928 121.152 123.968 121.152C123.264 121.152 122.544 121.24 121.808 121.416C121.088 121.576 120.376 121.832 119.672 122.184L118.4 119.376C119.296 118.8 120.272 118.416 121.328 118.224C122.384 118.016 123.584 117.912 124.928 117.912C125.808 117.912 126.6 118.016 127.304 118.224C128.024 118.432 128.632 118.744 129.128 119.16C129.64 119.56 130.032 120.072 130.304 120.696C130.592 121.304 130.736 122.008 130.736 122.808C130.736 123.688 130.576 124.52 130.256 125.304C129.936 126.088 129.464 126.84 128.84 127.56C128.232 128.28 127.48 128.992 126.584 129.696C125.688 130.384 124.672 131.08 123.536 131.784H131.456V135H119.264Z" fill="black"/>
<path d="M33.732 134.188C34.348 134.188 34.8427 134.095 35.216 133.908C35.5893 133.721 35.8787 133.455 36.084 133.11C36.2893 132.755 36.4247 132.326 36.49 131.822C36.5647 131.309 36.602 130.735 36.602 130.1C36.602 129.465 36.5647 128.896 36.49 128.392C36.4247 127.879 36.2893 127.449 36.084 127.104C35.8787 126.749 35.5893 126.479 35.216 126.292C34.8427 126.105 34.348 126.012 33.732 126.012C33.116 126.012 32.6213 126.105 32.248 126.292C31.8747 126.479 31.5853 126.749 31.38 127.104C31.1747 127.449 31.0347 127.879 30.96 128.392C30.8947 128.896 30.862 129.465 30.862 130.1C30.862 130.735 30.8947 131.309 30.96 131.822C31.0347 132.326 31.1747 132.755 31.38 133.11C31.5853 133.455 31.8747 133.721 32.248 133.908C32.6213 134.095 33.116 134.188 33.732 134.188ZM33.732 135.168C33.0227 135.168 32.416 135.065 31.912 134.86C31.408 134.655 30.9973 134.347 30.68 133.936C30.3627 133.516 30.1293 132.989 29.98 132.354C29.84 131.719 29.77 130.968 29.77 130.1C29.77 129.232 29.84 128.481 29.98 127.846C30.1293 127.211 30.3627 126.689 30.68 126.278C30.9973 125.858 31.408 125.545 31.912 125.34C32.416 125.135 33.0227 125.032 33.732 125.032C34.4413 125.032 35.048 125.135 35.552 125.34C36.056 125.545 36.4667 125.858 36.784 126.278C37.1013 126.689 37.33 127.211 37.47 127.846C37.6193 128.481 37.694 129.232 37.694 130.1C37.694 130.968 37.6193 131.719 37.47 132.354C37.33 132.989 37.1013 133.516 36.784 133.936C36.4667 134.347 36.056 134.655 35.552 134.86C35.048 135.065 34.4413 135.168 33.732 135.168ZM43.2309 130.436C43.8563 130.436 44.3603 130.259 44.7429 129.904C45.1256 129.549 45.3169 129.022 45.3169 128.322C45.3169 127.883 45.2516 127.515 45.1209 127.216C44.9903 126.917 44.8083 126.679 44.5749 126.502C44.3416 126.325 44.0616 126.199 43.7349 126.124C43.4083 126.049 43.0489 126.012 42.6569 126.012C42.3863 126.012 42.1109 126.031 41.8309 126.068C41.5509 126.105 41.2756 126.157 41.0049 126.222V130.436H43.2309ZM43.4409 131.416H41.0049V135H39.9269V125.354C40.3469 125.251 40.7856 125.172 41.2429 125.116C41.7003 125.06 42.1529 125.032 42.6009 125.032C43.1329 125.032 43.6323 125.088 44.0989 125.2C44.5656 125.303 44.9669 125.485 45.3029 125.746C45.6483 125.998 45.9189 126.339 46.1149 126.768C46.3109 127.188 46.4089 127.72 46.4089 128.364C46.4089 128.775 46.3576 129.134 46.2549 129.442C46.1616 129.75 46.0263 130.016 45.8489 130.24C45.6716 130.464 45.4616 130.651 45.2189 130.8C44.9763 130.94 44.7149 131.047 44.4349 131.122L46.6749 134.86L45.5269 135.126L43.4409 131.416ZM48.562 125.368C49.1314 125.265 49.6914 125.186 50.242 125.13C50.7927 125.065 51.3247 125.032 51.838 125.032C52.426 125.032 52.9674 125.102 53.462 125.242C53.966 125.382 54.4 125.639 54.764 126.012C55.128 126.385 55.4127 126.903 55.618 127.566C55.8327 128.219 55.94 129.064 55.94 130.1C55.94 131.015 55.856 131.785 55.688 132.41C55.5294 133.026 55.282 133.53 54.946 133.922C54.6194 134.305 54.1994 134.58 53.686 134.748C53.1727 134.916 52.566 135 51.866 135H48.562V125.368ZM51.866 134.02C52.3794 134.02 52.8227 133.964 53.196 133.852C53.5787 133.74 53.8914 133.539 54.134 133.25C54.3767 132.951 54.554 132.55 54.666 132.046C54.7874 131.533 54.848 130.884 54.848 130.1C54.848 129.251 54.7734 128.56 54.624 128.028C54.484 127.496 54.2834 127.081 54.022 126.782C53.77 126.483 53.462 126.283 53.098 126.18C52.734 126.068 52.3327 126.012 51.894 126.012C51.5394 126.012 51.166 126.031 50.774 126.068C50.382 126.096 50.004 126.143 49.64 126.208V134.02H51.866ZM58.1675 135V125.2H63.8235V126.18H59.2455V129.288H62.9975L62.8995 130.268H59.2455V134.02H63.8235V135H58.1675ZM69.3677 130.436C69.993 130.436 70.497 130.259 70.8797 129.904C71.2623 129.549 71.4537 129.022 71.4537 128.322C71.4537 127.883 71.3883 127.515 71.2577 127.216C71.127 126.917 70.945 126.679 70.7117 126.502C70.4783 126.325 70.1983 126.199 69.8717 126.124C69.545 126.049 69.1857 126.012 68.7937 126.012C68.523 126.012 68.2477 126.031 67.9677 126.068C67.6877 126.105 67.4123 126.157 67.1417 126.222V130.436H69.3677ZM69.5777 131.416H67.1417V135H66.0637V125.354C66.4837 125.251 66.9223 125.172 67.3797 125.116C67.837 125.06 68.2897 125.032 68.7377 125.032C69.2697 125.032 69.769 125.088 70.2357 125.2C70.7023 125.303 71.1037 125.485 71.4397 125.746C71.785 125.998 72.0557 126.339 72.2517 126.768C72.4477 127.188 72.5457 127.72 72.5457 128.364C72.5457 128.775 72.4943 129.134 72.3917 129.442C72.2983 129.75 72.163 130.016 71.9857 130.24C71.8083 130.464 71.5983 130.651 71.3557 130.8C71.113 130.94 70.8517 131.047 70.5717 131.122L72.8117 134.86L71.6637 135.126L69.5777 131.416Z" fill="black"/>
<path d="M148.6 122.016C148.008 121.696 147.384 121.472 146.728 121.344C146.088 121.2 145.44 121.128 144.784 121.128C144.112 121.128 143.552 121.216 143.104 121.392C142.656 121.568 142.288 121.832 142 122.184C141.728 122.52 141.528 122.952 141.4 123.48C141.272 124.008 141.192 124.616 141.16 125.304C141.624 124.744 142.2 124.344 142.888 124.104C143.576 123.848 144.432 123.72 145.456 123.72C147.216 123.72 148.576 124.2 149.536 125.16C150.512 126.12 151 127.432 151 129.096C151 129.992 150.872 130.816 150.616 131.568C150.36 132.32 149.968 132.976 149.44 133.536C148.912 134.08 148.232 134.512 147.4 134.832C146.568 135.136 145.576 135.288 144.424 135.288C141.944 135.288 140.16 134.584 139.072 133.176C138 131.752 137.464 129.56 137.464 126.6C137.464 125.112 137.632 123.824 137.968 122.736C138.32 121.632 138.8 120.728 139.408 120.024C140.016 119.304 140.736 118.776 141.568 118.44C142.4 118.088 143.304 117.912 144.28 117.912C145.384 117.912 146.4 118.008 147.328 118.2C148.272 118.376 149.152 118.712 149.968 119.208L148.6 122.016ZM141.184 128.208C141.216 128.832 141.296 129.384 141.424 129.864C141.552 130.344 141.744 130.752 142 131.088C142.256 131.408 142.584 131.656 142.984 131.832C143.384 131.992 143.872 132.072 144.448 132.072C144.976 132.072 145.424 132 145.792 131.856C146.176 131.696 146.488 131.488 146.728 131.232C146.968 130.96 147.144 130.648 147.256 130.296C147.368 129.928 147.424 129.536 147.424 129.12C147.424 128.16 147.184 127.48 146.704 127.08C146.24 126.68 145.528 126.48 144.568 126.48C143.848 126.48 143.192 126.616 142.6 126.888C142.024 127.16 141.552 127.6 141.184 128.208ZM163.044 135.288C161.764 135.288 160.58 135.16 159.492 134.904C158.404 134.648 157.404 134.224 156.492 133.632L157.788 130.872C158.588 131.288 159.412 131.592 160.26 131.784C161.108 131.976 161.964 132.072 162.828 132.072C164.028 132.072 164.86 131.864 165.324 131.448C165.804 131.032 166.044 130.384 166.044 129.504C166.044 128.656 165.732 128.088 165.108 127.8C164.5 127.496 163.612 127.344 162.444 127.344C161.948 127.344 161.372 127.4 160.716 127.512C160.06 127.624 159.324 127.8 158.508 128.04L157.212 125.28L158.076 118.2H168.252V121.416H161.004L160.5 124.92C161.012 124.792 161.532 124.696 162.06 124.632C162.588 124.568 163.092 124.536 163.572 124.536C164.532 124.536 165.388 124.664 166.14 124.92C166.908 125.16 167.556 125.512 168.084 125.976C168.628 126.424 169.036 126.976 169.308 127.632C169.596 128.272 169.74 128.984 169.74 129.768C169.74 130.536 169.612 131.256 169.356 131.928C169.1 132.584 168.7 133.168 168.156 133.68C167.612 134.176 166.916 134.568 166.068 134.856C165.22 135.144 164.212 135.288 163.044 135.288ZM186.368 122.016C185.776 121.696 185.152 121.472 184.496 121.344C183.856 121.2 183.208 121.128 182.552 121.128C181.88 121.128 181.32 121.216 180.872 121.392C180.424 121.568 180.056 121.832 179.768 122.184C179.496 122.52 179.296 122.952 179.168 123.48C179.04 124.008 178.96 124.616 178.928 125.304C179.392 124.744 179.968 124.344 180.656 124.104C181.344 123.848 182.2 123.72 183.224 123.72C184.984 123.72 186.344 124.2 187.304 125.16C188.28 126.12 188.768 127.432 188.768 129.096C188.768 129.992 188.64 130.816 188.384 131.568C188.128 132.32 187.736 132.976 187.208 133.536C186.68 134.08 186 134.512 185.168 134.832C184.336 135.136 183.344 135.288 182.192 135.288C179.712 135.288 177.928 134.584 176.84 133.176C175.768 131.752 175.232 129.56 175.232 126.6C175.232 125.112 175.4 123.824 175.736 122.736C176.088 121.632 176.568 120.728 177.176 120.024C177.784 119.304 178.504 118.776 179.336 118.44C180.168 118.088 181.072 117.912 182.048 117.912C183.152 117.912 184.168 118.008 185.096 118.2C186.04 118.376 186.92 118.712 187.736 119.208L186.368 122.016ZM178.952 128.208C178.984 128.832 179.064 129.384 179.192 129.864C179.32 130.344 179.512 130.752 179.768 131.088C180.024 131.408 180.352 131.656 180.752 131.832C181.152 131.992 181.64 132.072 182.216 132.072C182.744 132.072 183.192 132 183.56 131.856C183.944 131.696 184.256 131.488 184.496 131.232C184.736 130.96 184.912 130.648 185.024 130.296C185.136 129.928 185.192 129.536 185.192 129.12C185.192 128.16 184.952 127.48 184.472 127.08C184.008 126.68 183.296 126.48 182.336 126.48C181.616 126.48 180.96 126.616 180.368 126.888C179.792 127.16 179.32 127.6 178.952 128.208Z" fill="black"/>
<path opacity="0.38" fill-rule="evenodd" clip-rule="evenodd" d="M265 116C265 113.239 267.239 111 270 111H288C290.761 111 293 113.239 293 116V135C293 137.761 290.761 140 288 140H270C267.239 140 265 137.761 265 135V116ZM276.429 133.15C276.429 133.617 276.814 134 277.286 134H280.714C281.186 134 281.571 133.617 281.571 133.15V132.3H276.429V133.15ZM279 117C275.691 117 273 119.669 273 122.95C273 124.973 274.02 126.75 275.571 127.829V129.75C275.571 130.218 275.957 130.6 276.429 130.6H281.571C282.043 130.6 282.429 130.218 282.429 129.75V127.829C283.98 126.75 285 124.973 285 122.95C285 119.669 282.309 117 279 117Z" fill="black"/>
<mask id="mask0" mask-type="alpha" maskUnits="userSpaceOnUse" x="265" y="111" width="28" height="29">
<path fill-rule="evenodd" clip-rule="evenodd" d="M265 116C265 113.239 267.239 111 270 111H288C290.761 111 293 113.239 293 116V135C293 137.761 290.761 140 288 140H270C267.239 140 265 137.761 265 135V116ZM276.429 133.15C276.429 133.617 276.814 134 277.286 134H280.714C281.186 134 281.571 133.617 281.571 133.15V132.3H276.429V133.15ZM279 117C275.691 117 273 119.669 273 122.95C273 124.973 274.02 126.75 275.571 127.829V129.75C275.571 130.218 275.957 130.6 276.429 130.6H281.571C282.043 130.6 282.429 130.218 282.429 129.75V127.829C283.98 126.75 285 124.973 285 122.95C285 119.669 282.309 117 279 117Z" fill="white"/>
</mask>
<g mask="url(#mask0)">
</g>
<path d="M405 52.5C403.619 52.5 402.5 53.6193 402.5 55C402.5 56.3807 403.619 57.5 405 57.5V52.5ZM490.768 56.7678C491.744 55.7915 491.744 54.2085 490.768 53.2322L474.858 37.3223C473.882 36.346 472.299 36.346 471.322 37.3223C470.346 38.2986 470.346 39.8816 471.322 40.8579L485.464 55L471.322 69.1421C470.346 70.1184 470.346 71.7014 471.322 72.6777C472.299 73.654 473.882 73.654 474.858 72.6777L490.768 56.7678ZM405 57.5H489V52.5H405V57.5Z" fill="#222222"/>
<g filter="url(#filter1_d)">
<path d="M529 6.84128C529 5.27209 530.272 4 531.841 4H764.825C766.395 4 767.667 5.27208 767.667 6.84127V359.159C767.667 360.728 766.395 362 764.825 362H531.841C530.272 362 529 360.728 529 359.159V6.84128Z" fill="white"/>
</g>
<line x1="529" y1="77.5179" x2="767.667" y2="77.5179" stroke="#BEC7CC" stroke-width="0.710317"/>
<path d="M529 6.84127C529 5.27208 530.272 4 531.841 4H764.825C766.395 4 767.667 5.27208 767.667 6.84127V9.68254H529V6.84127Z" fill="#006CFF"/>
<path d="M547.306 62.3574H550.364V56.3823H556.248V53.8609H550.364V50.4142H556.883V47.8928H547.306V62.3574ZM561.841 62.5622C563.445 62.5622 564.483 61.863 565.012 60.853H565.097V62.3574H567.951V55.0403C567.951 52.4554 565.761 51.3677 563.346 51.3677C560.747 51.3677 559.037 52.6107 558.621 54.5883L561.403 54.8143C561.608 54.0939 562.251 53.5642 563.332 53.5642C564.356 53.5642 564.942 54.0798 564.942 54.9697V55.0121C564.942 55.7113 564.2 55.8031 562.314 55.9868C560.167 56.1845 558.239 56.9049 558.239 59.3275C558.239 61.4746 559.772 62.5622 561.841 62.5622ZM562.703 60.4858C561.778 60.4858 561.114 60.0549 561.114 59.2286C561.114 58.3811 561.813 57.9644 562.872 57.816C563.529 57.7242 564.603 57.5688 564.963 57.3287V58.4799C564.963 59.617 564.024 60.4858 562.703 60.4858ZM570.285 62.3574H573.294V56.2198C573.294 54.885 574.268 53.9668 575.596 53.9668C576.013 53.9668 576.585 54.0374 576.867 54.1292V51.4595C576.599 51.3959 576.225 51.3536 575.921 51.3536C574.706 51.3536 573.71 52.0598 573.315 53.4018H573.202V51.5089H570.285V62.3574ZM578.423 62.3574H581.432V55.8455C581.432 54.6448 582.195 53.8467 583.197 53.8467C584.186 53.8467 584.85 54.5248 584.85 55.5912V62.3574H587.767V55.7325C587.767 54.6095 588.41 53.8467 589.505 53.8467C590.465 53.8467 591.186 54.4471 591.186 55.6548V62.3574H594.187V55.0615C594.187 52.7096 592.789 51.3677 590.769 51.3677C589.18 51.3677 587.944 52.1799 587.499 53.423H587.386C587.04 52.1658 585.931 51.3677 584.441 51.3677C582.979 51.3677 581.87 52.1446 581.418 53.423H581.291V51.5089H578.423V62.3574ZM601.508 62.5693C604.192 62.5693 606 61.2627 606.424 59.2498L603.641 59.0662C603.337 59.8925 602.56 60.3233 601.557 60.3233C600.053 60.3233 599.099 59.3275 599.099 57.7101V57.703H606.487V56.8767C606.487 53.1899 604.255 51.3677 601.388 51.3677C598.195 51.3677 596.126 53.6348 596.126 56.9826C596.126 60.4222 598.167 62.5693 601.508 62.5693ZM599.099 55.8384C599.163 54.6025 600.102 53.6137 601.437 53.6137C602.744 53.6137 603.648 54.5459 603.655 55.8384H599.099ZM608.451 62.3574H611.459V56.2198C611.459 54.885 612.434 53.9668 613.762 53.9668C614.179 53.9668 614.751 54.0374 615.033 54.1292V51.4595C614.765 51.3959 614.39 51.3536 614.087 51.3536C612.872 51.3536 611.876 52.0598 611.481 53.4018H611.368V51.5089H608.451V62.3574ZM619.44 47.8928H617.18V49.4325C617.18 50.6261 616.756 51.4948 616.283 52.2435L617.611 53.0274C618.607 52.194 619.44 50.7108 619.44 49.4183V47.8928ZM629.111 54.6025C628.843 52.6037 627.232 51.3677 624.492 51.3677C621.716 51.3677 619.887 52.6531 619.894 54.7437C619.887 56.3682 620.911 57.4205 623.03 57.8443L624.909 58.2186C625.855 58.4093 626.286 58.7554 626.3 59.2992C626.286 59.9419 625.587 60.401 624.534 60.401C623.461 60.401 622.747 59.9419 622.564 59.0591L619.605 59.2145C619.887 61.2909 621.653 62.5693 624.527 62.5693C627.338 62.5693 629.351 61.1356 629.358 58.9955C629.351 57.4276 628.327 56.4882 626.222 56.0574L624.259 55.6619C623.249 55.4429 622.875 55.0968 622.882 54.5742C622.875 53.9244 623.609 53.5007 624.541 53.5007C625.587 53.5007 626.208 54.0727 626.357 54.772L629.111 54.6025ZM641.04 62.3574C645.447 62.3574 648.117 59.6312 648.117 55.111C648.117 50.6049 645.447 47.8928 641.083 47.8928H635.913V62.3574H641.04ZM638.971 59.7371V50.5131H640.92C643.632 50.5131 645.066 51.8974 645.066 55.111C645.066 58.3387 643.632 59.7371 640.913 59.7371H638.971ZM653.42 62.5622C655.023 62.5622 656.061 61.863 656.591 60.853H656.675V62.3574H659.529V55.0403C659.529 52.4554 657.339 51.3677 654.924 51.3677C652.325 51.3677 650.616 52.6107 650.199 54.5883L652.982 54.8143C653.186 54.0939 653.829 53.5642 654.91 53.5642C655.934 53.5642 656.52 54.0798 656.52 54.9697V55.0121C656.52 55.7113 655.778 55.8031 653.893 55.9868C651.746 56.1845 649.817 56.9049 649.817 59.3275C649.817 61.4746 651.35 62.5622 653.42 62.5622ZM654.281 60.4858C653.356 60.4858 652.692 60.0549 652.692 59.2286C652.692 58.3811 653.391 57.9644 654.451 57.816C655.108 57.7242 656.181 57.5688 656.541 57.3287V58.4799C656.541 59.617 655.602 60.4858 654.281 60.4858ZM668.82 57.7383C668.827 59.1933 667.831 59.9561 666.751 59.9561C665.613 59.9561 664.879 59.158 664.872 57.8796V51.5089H661.863V58.4164C661.87 60.9519 663.353 62.4987 665.536 62.4987C667.167 62.4987 668.34 61.6582 668.827 60.3869H668.94V62.3574H671.829V51.5089H668.82V57.7383ZM679.123 66.581C682.223 66.581 684.427 65.1684 684.427 62.4634V51.5089H681.439V53.3311H681.326C680.924 52.4483 680.041 51.3677 678.226 51.3677C675.846 51.3677 673.833 53.2181 673.833 56.912C673.833 60.5211 675.789 62.202 678.233 62.202C679.963 62.202 680.931 61.3333 681.326 60.4363H681.454V62.421C681.454 63.8406 680.5 64.4198 679.193 64.4198C677.866 64.4198 677.195 63.8406 676.948 63.2544L674.165 63.6287C674.525 65.2673 676.199 66.581 679.123 66.581ZM679.186 59.9419C677.71 59.9419 676.905 58.7695 676.905 56.8979C676.905 55.0545 677.696 53.762 679.186 53.762C680.648 53.762 681.468 54.998 681.468 56.8979C681.468 58.8119 680.634 59.9419 679.186 59.9419ZM689.83 56.0856C689.837 54.6872 690.692 53.8679 691.921 53.8679C693.143 53.8679 693.863 54.6519 693.856 55.9868V62.3574H696.865V55.45C696.872 52.9074 695.374 51.3677 693.114 51.3677C691.469 51.3677 690.367 52.1446 689.872 53.423H689.745V47.8928H686.821V62.3574H689.83V56.0856ZM705.003 51.5089H702.962V48.9098H699.953V51.5089H698.47V53.769H699.953V59.4193C699.939 61.5452 701.387 62.5976 703.569 62.5057C704.346 62.4775 704.897 62.3221 705.201 62.2232L704.727 59.9843C704.579 60.0126 704.261 60.0832 703.979 60.0832C703.378 60.0832 702.962 59.8572 702.962 59.0238V53.769H705.003V51.5089ZM711.79 62.5693C714.474 62.5693 716.282 61.2627 716.706 59.2498L713.923 59.0662C713.619 59.8925 712.843 60.3233 711.84 60.3233C710.335 60.3233 709.382 59.3275 709.382 57.7101V57.703H716.769V56.8767C716.769 53.1899 714.538 51.3677 711.67 51.3677C708.478 51.3677 706.408 53.6348 706.408 56.9826C706.408 60.4222 708.449 62.5693 711.79 62.5693ZM709.382 55.8384C709.445 54.6025 710.385 53.6137 711.72 53.6137C713.026 53.6137 713.93 54.5459 713.937 55.8384H709.382ZM718.733 62.3574H721.742V56.2198C721.742 54.885 722.716 53.9668 724.044 53.9668C724.461 53.9668 725.033 54.0374 725.315 54.1292V51.4595C725.047 51.3959 724.673 51.3536 724.369 51.3536C723.154 51.3536 722.158 52.0598 721.763 53.4018H721.65V51.5089H718.733V62.3574Z" fill="#0A0C0D"/>
<path d="M552.95 28.2989H554.161C554.105 26.7401 552.668 25.5747 550.67 25.5747C548.692 25.5747 547.139 26.7249 547.139 28.4604C547.139 29.8528 548.147 30.6801 549.762 31.1442L551.033 31.5075C552.123 31.8102 553.091 32.1936 553.091 33.2227C553.091 34.3528 552.002 35.0994 550.569 35.0994C549.338 35.0994 548.248 34.5546 548.147 33.3842H546.856C546.977 35.0792 548.349 36.2295 550.569 36.2295C552.95 36.2295 554.302 34.9178 554.302 33.2429C554.302 31.3057 552.466 30.6801 551.396 30.3976L550.347 30.1151C549.58 29.9133 548.349 29.5097 548.349 28.3998C548.349 27.411 549.257 26.6846 550.63 26.6846C551.881 26.6846 552.829 27.2799 552.95 28.2989ZM559.346 36.2093C561.061 36.2093 562.191 35.16 562.393 33.7878H561.202C560.98 34.6353 560.274 35.1398 559.346 35.1398C557.933 35.1398 557.025 33.9694 557.025 32.1734C557.025 30.4178 557.953 29.2675 559.346 29.2675C560.395 29.2675 561.021 29.9133 561.202 30.6196H562.393C562.191 29.1667 560.96 28.198 559.326 28.198C557.227 28.198 555.835 29.8528 555.835 32.2138C555.835 34.5344 557.166 36.2093 559.346 36.2093ZM567.281 36.2093C569.38 36.2093 570.793 34.6151 570.793 32.2138C570.793 29.7922 569.38 28.198 567.281 28.198C565.183 28.198 563.77 29.7922 563.77 32.2138C563.77 34.6151 565.183 36.2093 567.281 36.2093ZM567.281 35.1398C565.687 35.1398 564.961 33.7676 564.961 32.2138C564.961 30.6599 565.687 29.2675 567.281 29.2675C568.876 29.2675 569.602 30.6599 569.602 32.2138C569.602 33.7676 568.876 35.1398 567.281 35.1398ZM575.98 28.2989H574.325V26.4424H573.135V28.2989H571.964V29.3079H573.135V34.151C573.135 35.503 574.224 36.1487 575.233 36.1487C575.677 36.1487 575.96 36.068 576.121 36.0075L575.879 34.938C575.778 34.9582 575.617 34.9985 575.354 34.9985C574.83 34.9985 574.325 34.8371 574.325 33.8281V29.3079H575.98V28.2989ZM581.141 28.2989H579.486V26.4424H578.296V28.2989H577.125V29.3079H578.296V34.151C578.296 35.503 579.385 36.1487 580.394 36.1487C580.838 36.1487 581.121 36.068 581.282 36.0075L581.04 34.938C580.939 34.9582 580.778 34.9985 580.515 34.9985C579.991 34.9985 579.486 34.8371 579.486 33.8281V29.3079H581.141V28.2989ZM595.403 28.9447C595.019 26.8258 593.324 25.5747 591.246 25.5747C588.602 25.5747 586.685 27.6128 586.685 30.8819C586.685 34.151 588.602 36.1891 591.246 36.1891C593.324 36.1891 595.019 34.938 595.403 32.8191H594.152C593.849 34.2519 592.618 35.0187 591.246 35.0187C589.369 35.0187 587.896 33.5658 587.896 30.8819C587.896 28.198 589.369 26.7451 591.246 26.7451C592.618 26.7451 593.849 27.5119 594.152 28.9447H595.403ZM602.126 32.4357C602.626 32.4357 603.034 32.0271 603.034 31.5276C603.034 31.0282 602.626 30.6196 602.126 30.6196C601.627 30.6196 601.218 31.0282 601.218 31.5276C601.218 32.0271 601.627 32.4357 602.126 32.4357ZM613.021 36.0479H614.03L614.499 33.1824H616.027L616.189 32.1734H614.665L615.089 29.5904H616.633L616.794 28.5814H615.256L615.725 25.716H614.716L614.247 28.5814H611.623L612.092 25.716H611.083L610.614 28.5814H609.086L608.924 29.5904H610.448L610.024 32.1734H608.48L608.319 33.1824H609.858L609.388 36.0479H610.397L610.867 33.1824H613.49L613.021 36.0479ZM611.033 32.1734L611.457 29.5904H614.08L613.656 32.1734H611.033ZM621.741 25.716H620.49L617.907 27.4312V28.7025L620.429 27.0276H620.49V36.0479H621.741V25.716ZM624.712 36.0479H631.23V34.938H626.427V34.8573L628.748 32.3752C630.524 30.4733 631.049 29.5854 631.049 28.4402C631.049 26.846 629.757 25.5747 627.941 25.5747C626.13 25.5747 624.753 26.8057 624.753 28.6218H625.943C625.943 27.4464 626.705 26.6644 627.901 26.6644C629.021 26.6644 629.878 27.3505 629.878 28.4402C629.878 29.3937 629.318 30.1 628.123 31.4066L624.712 35.1398V36.0479ZM636.805 36.1891C638.808 36.1891 640.296 34.9329 640.296 33.2429C640.296 31.9312 639.519 30.9778 638.217 30.7608V30.6801C639.262 30.3623 639.912 29.5047 639.912 28.3393C639.912 26.8763 638.757 25.5747 636.845 25.5747C635.059 25.5747 633.576 26.6745 633.515 28.2989H634.726C634.772 27.2698 635.75 26.6644 636.825 26.6644C637.965 26.6644 638.702 27.3555 638.702 28.3998C638.702 29.4895 637.849 30.1958 636.623 30.1958H635.796V31.3057H636.623C638.192 31.3057 639.065 32.1028 639.065 33.2429C639.065 34.3376 638.111 35.0792 636.785 35.0792C635.589 35.0792 634.64 34.4638 634.565 33.4649H633.294C633.369 35.0893 634.802 36.1891 636.805 36.1891Z" fill="#2F3435"/>
<path d="M529 327.904H767.667V359.158C767.667 360.727 766.395 362 764.825 362H531.841C530.272 362 529 360.727 529 359.158V327.904Z" fill="#006CFF"/>
<path d="M629.144 350.587H633.558C635.879 350.587 637.115 349.376 637.115 347.732C637.115 346.203 636.02 345.28 634.845 345.224V345.123C635.919 344.881 636.711 344.119 636.711 342.904C636.711 341.355 635.561 340.255 633.281 340.255H629.144V350.587ZM631.328 348.801V346.057H633.16C634.209 346.057 634.86 346.662 634.86 347.515C634.86 348.291 634.33 348.801 633.109 348.801H631.328ZM631.328 344.578V342.021H632.988C633.957 342.021 634.507 342.52 634.507 343.267C634.507 344.084 633.841 344.578 632.948 344.578H631.328ZM643.465 347.288C643.47 348.327 642.759 348.872 641.987 348.872C641.175 348.872 640.65 348.302 640.645 347.388V342.838H638.496V347.772C638.501 349.583 639.56 350.688 641.119 350.688C642.285 350.688 643.122 350.087 643.47 349.179H643.551V350.587H645.614V342.838H643.465V347.288ZM647.333 350.587H649.482V345.936C649.482 345.078 650.027 344.508 650.744 344.508C651.45 344.508 651.924 344.992 651.924 345.754V350.587H654.008V345.855C654.008 345.053 654.467 344.508 655.249 344.508C655.935 344.508 656.449 344.937 656.449 345.799V350.587H658.593V345.376C658.593 343.696 657.595 342.737 656.152 342.737C655.017 342.737 654.134 343.317 653.816 344.205H653.735C653.488 343.307 652.696 342.737 651.632 342.737C650.587 342.737 649.795 343.292 649.472 344.205H649.382V342.838H647.333V350.587ZM660.291 353.493H662.44V349.346H662.506C662.803 349.992 663.454 350.713 664.705 350.713C666.471 350.713 667.848 349.316 667.848 346.723C667.848 344.059 666.41 342.737 664.71 342.737C663.414 342.737 662.793 343.509 662.506 344.14H662.41V342.838H660.291V353.493ZM662.395 346.712C662.395 345.33 662.98 344.447 664.024 344.447C665.089 344.447 665.654 345.371 665.654 346.712C665.654 348.064 665.079 349.003 664.024 349.003C662.99 349.003 662.395 348.095 662.395 346.712Z" fill="white"/>
<path d="M549.82 90.091H547.638V104.556H549.82V90.091ZM557.893 93.7072H555.668V91.1081H553.557V93.7072H551.967V95.4023H553.557V101.808C553.55 103.779 555.054 104.732 556.721 104.697C557.392 104.69 557.844 104.563 558.091 104.471L557.71 102.726C557.568 102.755 557.307 102.818 556.968 102.818C556.283 102.818 555.668 102.592 555.668 101.37V95.4023H557.893V93.7072ZM563.386 104.796C565.18 104.796 566.19 103.885 566.593 103.072H566.678V104.556H568.74V97.3516C568.74 94.1945 566.254 93.5659 564.53 93.5659C562.567 93.5659 560.759 94.357 560.053 96.3345L562.037 96.7866C562.348 96.0167 563.139 95.2751 564.559 95.2751C565.922 95.2751 566.621 95.9885 566.621 97.2174V97.2668C566.621 98.0367 565.83 98.0226 563.881 98.2486C561.825 98.4887 559.721 99.0255 559.721 101.49C559.721 103.623 561.324 104.796 563.386 104.796ZM563.845 103.101C562.652 103.101 561.79 102.564 561.79 101.519C561.79 100.389 562.793 99.986 564.015 99.8236C564.7 99.7318 566.324 99.5481 566.628 99.2444V100.643C566.628 101.928 565.604 103.101 563.845 103.101ZM573.664 90.091H571.553V104.556H573.664V90.091ZM576.505 104.556H578.617V93.7072H576.505V104.556ZM577.572 92.0333C578.299 92.0333 578.907 91.4683 578.907 90.7761C578.907 90.084 578.299 89.5119 577.572 89.5119C576.837 89.5119 576.237 90.084 576.237 90.7761C576.237 91.4683 576.837 92.0333 577.572 92.0333ZM584.615 104.796C586.409 104.796 587.419 103.885 587.822 103.072H587.907V104.556H589.969V97.3516C589.969 94.1945 587.483 93.5659 585.76 93.5659C583.796 93.5659 581.988 94.357 581.282 96.3345L583.266 96.7866C583.577 96.0167 584.368 95.2751 585.788 95.2751C587.151 95.2751 587.85 95.9885 587.85 97.2174V97.2668C587.85 98.0367 587.059 98.0226 585.11 98.2486C583.054 98.4887 580.95 99.0255 580.95 101.49C580.95 103.623 582.553 104.796 584.615 104.796ZM585.074 103.101C583.881 103.101 583.019 102.564 583.019 101.519C583.019 100.389 584.022 99.986 585.244 99.8236C585.929 99.7318 587.553 99.5481 587.857 99.2444V100.643C587.857 101.928 586.833 103.101 585.074 103.101ZM594.893 98.1144C594.893 96.384 595.953 95.3952 597.422 95.3952C598.856 95.3952 599.724 96.3345 599.724 97.9096V104.556H601.836V97.6553C601.836 94.9714 600.36 93.5659 598.142 93.5659C596.511 93.5659 595.444 94.3216 594.943 95.4729H594.809V93.7072H592.782V104.556H594.893V98.1144ZM618.061 96.3557C617.623 94.6677 616.303 93.5659 613.958 93.5659C611.507 93.5659 609.77 94.8584 609.77 96.7795C609.77 98.3192 610.702 99.3433 612.736 99.7953L614.572 100.198C615.618 100.431 616.105 100.897 616.105 101.575C616.105 102.416 615.208 103.072 613.824 103.072C612.559 103.072 611.747 102.529 611.493 101.462L609.452 101.773C609.805 103.694 611.401 104.775 613.838 104.775C616.458 104.775 618.273 103.383 618.273 101.42C618.273 99.8871 617.299 98.9407 615.307 98.4816L613.583 98.0861C612.39 97.8036 611.874 97.401 611.881 96.6665C611.874 95.8331 612.778 95.2398 613.979 95.2398C615.293 95.2398 615.9 95.9673 616.147 96.6948L618.061 96.3557ZM623.752 104.796C625.546 104.796 626.556 103.885 626.959 103.072H627.043V104.556H629.106V97.3516C629.106 94.1945 626.62 93.5659 624.896 93.5659C622.933 93.5659 621.125 94.357 620.419 96.3345L622.403 96.7866C622.714 96.0167 623.505 95.2751 624.925 95.2751C626.288 95.2751 626.987 95.9885 626.987 97.2174V97.2668C626.987 98.0367 626.196 98.0226 624.247 98.2486C622.191 98.4887 620.087 99.0255 620.087 101.49C620.087 103.623 621.69 104.796 623.752 104.796ZM624.211 103.101C623.018 103.101 622.156 102.564 622.156 101.519C622.156 100.389 623.159 99.986 624.381 99.8236C625.066 99.7318 626.69 99.5481 626.994 99.2444V100.643C626.994 101.928 625.97 103.101 624.211 103.101ZM638.791 100.057C638.798 101.9 637.428 102.776 636.241 102.776C634.934 102.776 634.03 101.829 634.03 100.353V93.7072H631.919V100.608C631.919 103.298 633.395 104.697 635.478 104.697C637.11 104.697 638.219 103.835 638.72 102.677H638.833V104.556H640.909V93.7072H638.791V100.057ZM651.876 96.3557C651.438 94.6677 650.118 93.5659 647.773 93.5659C645.322 93.5659 643.585 94.8584 643.585 96.7795C643.585 98.3192 644.517 99.3433 646.551 99.7953L648.387 100.198C649.433 100.431 649.92 100.897 649.92 101.575C649.92 102.416 649.023 103.072 647.639 103.072C646.374 103.072 645.562 102.529 645.308 101.462L643.267 101.773C643.62 103.694 645.216 104.775 647.653 104.775C650.273 104.775 652.088 103.383 652.088 101.42C652.088 99.8871 651.114 98.9407 649.122 98.4816L647.398 98.0861C646.205 97.8036 645.689 97.401 645.696 96.6665C645.689 95.8331 646.593 95.2398 647.794 95.2398C649.108 95.2398 649.715 95.9673 649.962 96.6948L651.876 96.3557ZM657.567 104.796C659.361 104.796 660.371 103.885 660.774 103.072H660.858V104.556H662.921V97.3516C662.921 94.1945 660.435 93.5659 658.711 93.5659C656.748 93.5659 654.94 94.357 654.234 96.3345L656.218 96.7866C656.529 96.0167 657.32 95.2751 658.74 95.2751C660.103 95.2751 660.802 95.9885 660.802 97.2174V97.2668C660.802 98.0367 660.011 98.0226 658.062 98.2486C656.006 98.4887 653.902 99.0255 653.902 101.49C653.902 103.623 655.505 104.796 657.567 104.796ZM658.026 103.101C656.833 103.101 655.971 102.564 655.971 101.519C655.971 100.389 656.974 99.986 658.196 99.8236C658.881 99.7318 660.505 99.5481 660.809 99.2444V100.643C660.809 101.928 659.785 103.101 658.026 103.101ZM670.282 108.829C673.044 108.829 675.177 107.564 675.177 104.796V93.7072H673.107V95.4658H672.952C672.577 94.7949 671.829 93.5659 669.809 93.5659C667.188 93.5659 665.26 95.6353 665.26 99.089C665.26 102.55 667.231 104.393 669.795 104.393C671.786 104.393 672.556 103.27 672.938 102.578H673.072V104.711C673.072 106.385 671.906 107.127 670.303 107.127C668.545 107.127 667.859 106.244 667.485 105.643L665.67 106.392C666.242 107.699 667.69 108.829 670.282 108.829ZM670.261 102.642C668.375 102.642 667.393 101.194 667.393 99.0608C667.393 96.9773 668.354 95.3599 670.261 95.3599C672.104 95.3599 673.093 96.8643 673.093 99.0608C673.093 101.3 672.083 102.642 670.261 102.642ZM682.684 104.775C685.05 104.775 686.724 103.609 687.204 101.844L685.206 101.483C684.824 102.507 683.906 103.03 682.705 103.03C680.897 103.03 679.683 101.858 679.626 99.7671H687.339V99.0184C687.339 95.0986 684.994 93.5659 682.536 93.5659C679.513 93.5659 677.521 95.8684 677.521 99.202C677.521 102.571 679.485 104.775 682.684 104.775ZM679.633 98.185C679.718 96.6453 680.834 95.3104 682.55 95.3104C684.189 95.3104 685.262 96.5252 685.269 98.185H679.633Z" fill="#0A0C0D"/>
<path d="M547.638 132.968H549.82V127.883H552.787C556.142 127.883 557.801 125.856 557.801 123.186C557.801 120.523 556.156 118.503 552.794 118.503H547.638V132.968ZM549.82 126.032V120.375H552.561C554.722 120.375 555.605 121.547 555.605 123.186C555.605 124.824 554.722 126.032 552.589 126.032H549.82ZM560.19 132.968H562.302V122.119H560.19V132.968ZM561.257 120.445C561.984 120.445 562.592 119.88 562.592 119.188C562.592 118.496 561.984 117.924 561.257 117.924C560.522 117.924 559.922 118.496 559.922 119.188C559.922 119.88 560.522 120.445 561.257 120.445ZM567.255 126.526C567.255 124.796 568.314 123.807 569.783 123.807C571.217 123.807 572.086 124.747 572.086 126.322V132.968H574.198V126.067C574.198 123.384 572.722 121.978 570.504 121.978C568.872 121.978 567.806 122.734 567.304 123.885H567.17V122.119H565.143V132.968H567.255V126.526ZM581.705 133.187C584.071 133.187 585.745 132.021 586.226 130.256L584.227 129.895C583.845 130.92 582.927 131.442 581.727 131.442C579.919 131.442 578.704 130.27 578.647 128.179H586.36V127.431C586.36 123.511 584.015 121.978 581.557 121.978C578.534 121.978 576.543 124.281 576.543 127.614C576.543 130.983 578.506 133.187 581.705 133.187ZM578.654 126.597C578.739 125.057 579.855 123.723 581.571 123.723C583.21 123.723 584.283 124.937 584.29 126.597H578.654ZM591.86 133.208C593.654 133.208 594.664 132.297 595.067 131.485H595.151V132.968H597.214V125.764C597.214 122.607 594.728 121.978 593.004 121.978C591.041 121.978 589.233 122.769 588.526 124.747L590.511 125.199C590.822 124.429 591.613 123.687 593.032 123.687C594.396 123.687 595.095 124.401 595.095 125.63V125.679C595.095 126.449 594.304 126.435 592.354 126.661C590.299 126.901 588.194 127.438 588.194 129.903C588.194 132.035 589.798 133.208 591.86 133.208ZM592.319 131.513C591.125 131.513 590.264 130.976 590.264 129.931C590.264 128.801 591.267 128.398 592.489 128.236C593.174 128.144 594.798 127.96 595.102 127.657V129.055C595.102 130.34 594.078 131.513 592.319 131.513ZM600.026 137.036H602.138V131.28H602.265C602.647 131.972 603.424 133.18 605.401 133.18C608.029 133.18 609.936 131.075 609.936 127.565C609.936 124.047 608 121.978 605.38 121.978C603.367 121.978 602.64 123.207 602.265 123.878H602.089V122.119H600.026V137.036ZM602.096 127.544C602.096 125.276 603.085 123.772 604.928 123.772C606.842 123.772 607.803 125.389 607.803 127.544C607.803 129.719 606.814 131.379 604.928 131.379C603.113 131.379 602.096 129.825 602.096 127.544ZM612.302 137.036H614.413V131.28H614.54C614.922 131.972 615.699 133.18 617.676 133.18C620.304 133.18 622.211 131.075 622.211 127.565C622.211 124.047 620.275 121.978 617.655 121.978C615.642 121.978 614.915 123.207 614.54 123.878H614.364V122.119H612.302V137.036ZM614.371 127.544C614.371 125.276 615.36 123.772 617.203 123.772C619.117 123.772 620.078 125.389 620.078 127.544C620.078 129.719 619.089 131.379 617.203 131.379C615.388 131.379 614.371 129.825 614.371 127.544ZM626.689 118.503H624.577V132.968H626.689V118.503ZM634.205 133.187C636.571 133.187 638.245 132.021 638.725 130.256L636.727 129.895C636.345 130.92 635.427 131.442 634.226 131.442C632.418 131.442 631.203 130.27 631.147 128.179H638.86V127.431C638.86 123.511 636.515 121.978 634.057 121.978C631.034 121.978 629.042 124.281 629.042 127.614C629.042 130.983 631.006 133.187 634.205 133.187ZM631.154 126.597C631.239 125.057 632.355 123.723 634.071 123.723C635.709 123.723 636.783 124.937 636.79 126.597H631.154Z" fill="#0A0C0D"/>
<path d="M547.638 161.381H556.791V159.502H549.82V155.074H556.233V153.202H549.82V148.795H556.707V146.916H547.638V161.381ZM564.001 165.654C566.762 165.654 568.895 164.39 568.895 161.621V150.532H566.826V152.291H566.67C566.296 151.62 565.547 150.391 563.528 150.391C560.907 150.391 558.979 152.461 558.979 155.914C558.979 159.375 560.95 161.218 563.513 161.218C565.505 161.218 566.275 160.095 566.656 159.403H566.791V161.536C566.791 163.21 565.625 163.952 564.022 163.952C562.263 163.952 561.578 163.069 561.204 162.469L559.389 163.217C559.961 164.524 561.409 165.654 564.001 165.654ZM563.98 159.467C562.094 159.467 561.112 158.019 561.112 155.886C561.112 153.802 562.073 152.185 563.98 152.185C565.823 152.185 566.812 153.689 566.812 155.886C566.812 158.125 565.802 159.467 563.98 159.467ZM576.276 165.654C579.037 165.654 581.17 164.39 581.17 161.621V150.532H579.101V152.291H578.946C578.571 151.62 577.823 150.391 575.803 150.391C573.182 150.391 571.254 152.461 571.254 155.914C571.254 159.375 573.225 161.218 575.789 161.218C577.78 161.218 578.55 160.095 578.932 159.403H579.066V161.536C579.066 163.21 577.9 163.952 576.297 163.952C574.538 163.952 573.853 163.069 573.479 162.469L571.664 163.217C572.236 164.524 573.684 165.654 576.276 165.654ZM576.255 159.467C574.369 159.467 573.387 158.019 573.387 155.886C573.387 153.802 574.348 152.185 576.255 152.185C578.098 152.185 579.087 153.689 579.087 155.886C579.087 158.125 578.077 159.467 576.255 159.467Z" fill="#0A0C0D"/>
<path d="M584.883 175.329H582.722V185.952H582.588L575.228 175.329H573.208V189.794H575.391V179.186H575.525L582.877 189.794H584.883V175.329ZM592.467 190.013C595.525 190.013 597.524 187.774 597.524 184.419C597.524 181.043 595.525 178.804 592.467 178.804C589.409 178.804 587.41 181.043 587.41 184.419C587.41 187.774 589.409 190.013 592.467 190.013ZM592.474 188.24C590.475 188.24 589.543 186.496 589.543 184.412C589.543 182.336 590.475 180.57 592.474 180.57C594.459 180.57 595.391 182.336 595.391 184.412C595.391 186.496 594.459 188.24 592.474 188.24ZM605.145 193.862H607.256V188.106H607.383C607.765 188.798 608.542 190.006 610.519 190.006C613.147 190.006 615.054 187.901 615.054 184.391C615.054 180.874 613.118 178.804 610.498 178.804C608.485 178.804 607.758 180.033 607.383 180.704H607.207V178.945H605.145V193.862ZM607.214 184.37C607.214 182.103 608.203 180.598 610.046 180.598C611.96 180.598 612.921 182.216 612.921 184.37C612.921 186.545 611.932 188.205 610.046 188.205C608.231 188.205 607.214 186.651 607.214 184.37ZM622.095 190.013C624.461 190.013 626.135 188.848 626.616 187.082L624.617 186.722C624.235 187.746 623.317 188.268 622.117 188.268C620.308 188.268 619.094 187.096 619.037 185.005H626.75V184.257C626.75 180.337 624.405 178.804 621.947 178.804C618.924 178.804 616.932 181.107 616.932 184.44C616.932 187.809 618.896 190.013 622.095 190.013ZM619.044 183.423C619.129 181.884 620.245 180.549 621.961 180.549C623.6 180.549 624.673 181.764 624.68 183.423H619.044ZM629.093 193.862H631.205V188.106H631.332C631.713 188.798 632.49 190.006 634.468 190.006C637.095 190.006 639.002 187.901 639.002 184.391C639.002 180.874 637.067 178.804 634.446 178.804C632.434 178.804 631.706 180.033 631.332 180.704H631.155V178.945H629.093V193.862ZM631.162 184.37C631.162 182.103 632.151 180.598 633.994 180.598C635.908 180.598 636.869 182.216 636.869 184.37C636.869 186.545 635.88 188.205 633.994 188.205C632.179 188.205 631.162 186.651 631.162 184.37ZM641.368 193.862H643.48V188.106H643.607C643.988 188.798 644.765 190.006 646.743 190.006C649.37 190.006 651.277 187.901 651.277 184.391C651.277 180.874 649.342 178.804 646.722 178.804C644.709 178.804 643.981 180.033 643.607 180.704H643.43V178.945H641.368V193.862ZM643.437 184.37C643.437 182.103 644.426 180.598 646.27 180.598C648.184 180.598 649.144 182.216 649.144 184.37C649.144 186.545 648.155 188.205 646.27 188.205C644.454 188.205 643.437 186.651 643.437 184.37ZM658.319 190.013C660.685 190.013 662.359 188.848 662.839 187.082L660.84 186.722C660.459 187.746 659.541 188.268 658.34 188.268C656.532 188.268 655.317 187.096 655.261 185.005H662.973V184.257C662.973 180.337 660.628 178.804 658.17 178.804C655.148 178.804 653.156 181.107 653.156 184.44C653.156 187.809 655.119 190.013 658.319 190.013ZM655.268 183.423C655.352 181.884 656.468 180.549 658.185 180.549C659.823 180.549 660.897 181.764 660.904 183.423H655.268ZM665.316 189.794H667.428V183.169C667.428 181.749 668.523 180.725 670.02 180.725C670.458 180.725 670.952 180.803 671.122 180.852V178.832C670.91 178.804 670.493 178.783 670.225 178.783C668.954 178.783 667.866 179.503 667.47 180.669H667.357V178.945H665.316V189.794ZM677.131 190.013C680.189 190.013 682.188 187.774 682.188 184.419C682.188 181.043 680.189 178.804 677.131 178.804C674.072 178.804 672.074 181.043 672.074 184.419C672.074 187.774 674.072 190.013 677.131 190.013ZM677.138 188.24C675.139 188.24 674.207 186.496 674.207 184.412C674.207 182.336 675.139 180.57 677.138 180.57C679.122 180.57 680.055 182.336 680.055 184.412C680.055 186.496 679.122 188.24 677.138 188.24ZM686.657 183.353C686.657 181.622 687.716 180.633 689.185 180.633C690.619 180.633 691.487 181.573 691.487 183.148V189.794H693.599V182.894C693.599 180.21 692.123 178.804 689.905 178.804C688.274 178.804 687.207 179.56 686.706 180.711H686.572V178.945H684.545V189.794H686.657V183.353ZM696.431 189.794H698.543V178.945H696.431V189.794ZM697.498 177.272C698.225 177.272 698.833 176.707 698.833 176.014C698.833 175.322 698.225 174.75 697.498 174.75C696.763 174.75 696.163 175.322 696.163 176.014C696.163 176.707 696.763 177.272 697.498 177.272Z" fill="#C92327"/>
<path d="M555.527 207.541H557.632C557.568 205.225 555.52 203.544 552.582 203.544C549.679 203.544 547.454 205.203 547.454 207.697C547.454 209.709 548.895 210.889 551.219 211.518L552.928 211.984C554.475 212.393 555.668 212.902 555.668 214.187C555.668 215.6 554.319 216.532 552.462 216.532C550.781 216.532 549.382 215.784 549.255 214.209H547.066C547.207 216.829 549.234 218.446 552.476 218.446C555.873 218.446 557.83 216.659 557.83 214.209C557.83 211.602 555.506 210.592 553.67 210.14L552.257 209.773C551.127 209.483 549.623 208.954 549.63 207.569C549.63 206.341 550.753 205.429 552.532 205.429C554.192 205.429 555.372 206.206 555.527 207.541ZM560.268 222.274H562.38V216.518H562.507C562.888 217.21 563.665 218.418 565.643 218.418C568.27 218.418 570.177 216.313 570.177 212.803C570.177 209.286 568.242 207.216 565.622 207.216C563.609 207.216 562.881 208.445 562.507 209.116H562.33V207.358H560.268V222.274ZM562.337 212.782C562.337 210.515 563.326 209.01 565.17 209.01C567.084 209.01 568.044 210.628 568.044 212.782C568.044 214.957 567.055 216.617 565.17 216.617C563.354 216.617 562.337 215.063 562.337 212.782ZM572.543 218.206H574.655V207.358H572.543V218.206ZM573.61 205.684C574.337 205.684 574.945 205.119 574.945 204.427C574.945 203.734 574.337 203.162 573.61 203.162C572.875 203.162 572.275 203.734 572.275 204.427C572.275 205.119 572.875 205.684 573.61 205.684ZM579.608 211.765C579.608 210.034 580.667 209.046 582.136 209.046C583.57 209.046 584.439 209.985 584.439 211.56V218.206H586.551V211.306C586.551 208.622 585.074 207.216 582.857 207.216C581.225 207.216 580.159 207.972 579.657 209.123H579.523V207.358H577.496V218.206H579.608V211.765ZM592.54 218.446C594.334 218.446 595.344 217.535 595.746 216.723H595.831V218.206H597.893V211.002C597.893 207.845 595.407 207.216 593.684 207.216C591.721 207.216 589.912 208.007 589.206 209.985L591.191 210.437C591.502 209.667 592.293 208.926 593.712 208.926C595.075 208.926 595.775 209.639 595.775 210.868V210.917C595.775 211.687 594.984 211.673 593.034 211.899C590.979 212.139 588.874 212.676 588.874 215.141C588.874 217.274 590.477 218.446 592.54 218.446ZM592.999 216.751C591.805 216.751 590.944 216.214 590.944 215.169C590.944 214.039 591.947 213.636 593.168 213.474C593.853 213.382 595.478 213.199 595.782 212.895V214.293C595.782 215.579 594.758 216.751 592.999 216.751ZM605.276 218.425C607.84 218.425 609.499 216.885 609.732 214.774H607.677C607.409 215.946 606.498 216.638 605.29 216.638C603.503 216.638 602.352 215.148 602.352 212.782C602.352 210.458 603.524 208.996 605.29 208.996C606.632 208.996 607.451 209.844 607.677 210.861H609.732C609.506 208.671 607.72 207.216 605.255 207.216C602.196 207.216 600.219 209.519 600.219 212.831C600.219 216.101 602.126 218.425 605.276 218.425ZM614.103 211.765C614.103 210.034 615.197 209.046 616.702 209.046C618.157 209.046 619.025 209.971 619.025 211.56V218.206H621.137V211.306C621.137 208.601 619.654 207.216 617.422 207.216C615.734 207.216 614.717 207.951 614.209 209.123H614.074V203.741H611.991V218.206H614.103V211.765Z" fill="#0A0C0D"/>
<path d="M574.43 246.619L575.758 242.791H581.408L582.729 246.619H585.046L579.84 232.154H577.319L572.114 246.619H574.43ZM576.394 240.955L578.527 234.782H578.64L580.773 240.955H576.394ZM590.851 246.831C592.829 246.831 593.606 245.623 593.987 244.931H594.164V246.619H596.226V232.154H594.114V237.529H593.987C593.606 236.858 592.885 235.629 590.865 235.629C588.245 235.629 586.317 237.699 586.317 241.216C586.317 244.726 588.217 246.831 590.851 246.831ZM591.317 245.03C589.432 245.03 588.45 243.37 588.45 241.195C588.45 239.041 589.41 237.423 591.317 237.423C593.161 237.423 594.15 238.928 594.15 241.195C594.15 243.476 593.14 245.03 591.317 245.03ZM603.301 246.831C605.279 246.831 606.056 245.623 606.437 244.931H606.614V246.619H608.676V232.154H606.564V237.529H606.437C606.056 236.858 605.335 235.629 603.315 235.629C600.695 235.629 598.767 237.699 598.767 241.216C598.767 244.726 600.667 246.831 603.301 246.831ZM603.767 245.03C601.882 245.03 600.9 243.37 600.9 241.195C600.9 239.041 601.86 237.423 603.767 237.423C605.611 237.423 606.599 238.928 606.599 241.195C606.599 243.476 605.59 245.03 603.767 245.03ZM625.083 238.419C624.645 236.731 623.324 235.629 620.979 235.629C618.529 235.629 616.791 236.922 616.791 238.843C616.791 240.383 617.723 241.407 619.758 241.859L621.594 242.261C622.639 242.494 623.126 242.961 623.126 243.639C623.126 244.479 622.23 245.136 620.845 245.136C619.581 245.136 618.769 244.592 618.514 243.526L616.473 243.836C616.826 245.757 618.423 246.838 620.859 246.838C623.48 246.838 625.295 245.447 625.295 243.483C625.295 241.951 624.32 241.004 622.328 240.545L620.605 240.15C619.411 239.867 618.896 239.465 618.903 238.73C618.896 237.897 619.8 237.303 621.001 237.303C622.314 237.303 622.922 238.031 623.169 238.758L625.083 238.419ZM629.728 240.178C629.728 238.447 630.823 237.459 632.328 237.459C633.783 237.459 634.651 238.384 634.651 239.973V246.619H636.763V239.719C636.763 237.014 635.28 235.629 633.048 235.629C631.36 235.629 630.343 236.364 629.834 237.536H629.7V232.154H627.617V246.619H629.728V240.178ZM639.581 246.619H641.693V239.994C641.693 238.575 642.788 237.55 644.285 237.55C644.723 237.55 645.217 237.628 645.387 237.678V235.658C645.175 235.629 644.758 235.608 644.49 235.608C643.218 235.608 642.131 236.329 641.735 237.494H641.622V235.771H639.581V246.619ZM647.214 246.619H649.326V235.771H647.214V246.619ZM648.281 234.097C649.008 234.097 649.616 233.532 649.616 232.84C649.616 232.147 649.008 231.575 648.281 231.575C647.546 231.575 646.946 232.147 646.946 232.84C646.946 233.532 647.546 234.097 648.281 234.097ZM652.167 246.619H654.279V239.931C654.279 238.469 655.303 237.452 656.504 237.452C657.676 237.452 658.488 238.229 658.488 239.408V246.619H660.593V239.705C660.593 238.398 661.391 237.452 662.768 237.452C663.884 237.452 664.802 238.073 664.802 239.542V246.619H666.914V239.344C666.914 236.865 665.53 235.629 663.566 235.629C662.006 235.629 660.833 236.378 660.31 237.536H660.197C659.724 236.35 658.728 235.629 657.28 235.629C655.847 235.629 654.78 236.343 654.328 237.536H654.194V235.771H652.167V246.619ZM669.745 250.687H671.856V244.931H671.984C672.365 245.623 673.142 246.831 675.119 246.831C677.747 246.831 679.654 244.726 679.654 241.216C679.654 237.699 677.719 235.629 675.098 235.629C673.085 235.629 672.358 236.858 671.984 237.529H671.807V235.771H669.745V250.687ZM671.814 241.195C671.814 238.928 672.803 237.423 674.646 237.423C676.56 237.423 677.521 239.041 677.521 241.195C677.521 243.37 676.532 245.03 674.646 245.03C672.831 245.03 671.814 243.476 671.814 241.195Z" fill="#007115"/>
<path d="M547.638 275.032H549.82V269.947H552.787C556.142 269.947 557.801 267.92 557.801 265.25C557.801 262.588 556.156 260.568 552.794 260.568H547.638V275.032ZM549.82 268.097V262.439H552.561C554.722 262.439 555.605 263.612 555.605 265.25C555.605 266.889 554.722 268.097 552.589 268.097H549.82ZM564.73 275.251C567.096 275.251 568.77 274.086 569.25 272.32L567.251 271.96C566.87 272.984 565.952 273.507 564.751 273.507C562.943 273.507 561.728 272.334 561.672 270.244H569.384V269.495C569.384 265.575 567.04 264.042 564.582 264.042C561.559 264.042 559.567 266.345 559.567 269.679C559.567 273.048 561.531 275.251 564.73 275.251ZM561.679 268.662C561.764 267.122 562.88 265.787 564.596 265.787C566.234 265.787 567.308 267.002 567.315 268.662H561.679ZM579.857 266.832C579.419 265.144 578.098 264.042 575.753 264.042C573.302 264.042 571.565 265.335 571.565 267.256C571.565 268.796 572.497 269.82 574.531 270.272L576.368 270.674C577.413 270.908 577.9 271.374 577.9 272.052C577.9 272.892 577.003 273.549 575.619 273.549C574.355 273.549 573.543 273.005 573.288 271.939L571.247 272.249C571.6 274.171 573.197 275.251 575.633 275.251C578.253 275.251 580.069 273.86 580.069 271.896C580.069 270.364 579.094 269.417 577.102 268.958L575.379 268.563C574.185 268.28 573.67 267.878 573.677 267.143C573.67 266.31 574.574 265.716 575.774 265.716C577.088 265.716 577.696 266.444 577.943 267.171L579.857 266.832ZM587.455 264.184H585.23V261.585H583.118V264.184H581.529V265.879H583.118V272.285C583.111 274.255 584.615 275.209 586.282 275.173C586.953 275.166 587.405 275.039 587.652 274.947L587.271 273.203C587.13 273.231 586.868 273.295 586.529 273.295C585.844 273.295 585.23 273.069 585.23 271.847V265.879H587.455V264.184ZM594.244 275.251C597.302 275.251 599.301 273.012 599.301 269.657C599.301 266.281 597.302 264.042 594.244 264.042C591.186 264.042 589.187 266.281 589.187 269.657C589.187 273.012 591.186 275.251 594.244 275.251ZM594.251 273.478C592.252 273.478 591.32 271.734 591.32 269.65C591.32 267.574 592.252 265.808 594.251 265.808C596.235 265.808 597.168 267.574 597.168 269.65C597.168 271.734 596.235 273.478 594.251 273.478Z" fill="#0A0C0D"/>
<path d="M555.527 292.779H557.632C557.568 290.463 555.52 288.782 552.582 288.782C549.679 288.782 547.454 290.442 547.454 292.935C547.454 294.948 548.895 296.127 551.219 296.756L552.928 297.222C554.475 297.632 555.668 298.14 555.668 299.426C555.668 300.838 554.319 301.77 552.462 301.77C550.781 301.77 549.382 301.022 549.255 299.447H547.066C547.207 302.067 549.234 303.684 552.476 303.684C555.873 303.684 557.83 301.898 557.83 299.447C557.83 296.841 555.506 295.831 553.67 295.379L552.257 295.011C551.127 294.722 549.623 294.192 549.63 292.808C549.63 291.579 550.753 290.668 552.532 290.668C554.192 290.668 555.372 291.445 555.527 292.779ZM564.944 303.663C567.31 303.663 568.984 302.498 569.464 300.732L567.465 300.372C567.084 301.396 566.165 301.919 564.965 301.919C563.157 301.919 561.942 300.746 561.885 298.656H569.598V297.907C569.598 293.987 567.253 292.455 564.795 292.455C561.772 292.455 559.781 294.757 559.781 298.091C559.781 301.46 561.744 303.663 564.944 303.663ZM561.892 297.074C561.977 295.534 563.093 294.199 564.809 294.199C566.448 294.199 567.522 295.414 567.529 297.074H561.892ZM580.07 295.244C579.633 293.556 578.312 292.455 575.967 292.455C573.516 292.455 571.779 293.747 571.779 295.668C571.779 297.208 572.711 298.232 574.745 298.684L576.581 299.087C577.627 299.32 578.114 299.786 578.114 300.464C578.114 301.304 577.217 301.961 575.833 301.961C574.568 301.961 573.756 301.417 573.502 300.351L571.461 300.662C571.814 302.583 573.41 303.663 575.847 303.663C578.467 303.663 580.282 302.272 580.282 300.308C580.282 298.776 579.308 297.829 577.316 297.37L575.593 296.975C574.399 296.692 573.883 296.29 573.89 295.555C573.883 294.722 574.787 294.128 575.988 294.128C577.302 294.128 577.909 294.856 578.156 295.583L580.07 295.244ZM585.761 303.684C587.555 303.684 588.565 302.773 588.968 301.961H589.053V303.444H591.115V296.24C591.115 293.083 588.629 292.455 586.905 292.455C584.942 292.455 583.134 293.246 582.428 295.223L584.412 295.675C584.723 294.905 585.514 294.164 586.934 294.164C588.297 294.164 588.996 294.877 588.996 296.106V296.156C588.996 296.925 588.205 296.911 586.256 297.137C584.2 297.377 582.096 297.914 582.096 300.379C582.096 302.512 583.699 303.684 585.761 303.684ZM586.22 301.989C585.027 301.989 584.165 301.453 584.165 300.407C584.165 299.277 585.168 298.875 586.39 298.712C587.075 298.62 588.699 298.437 589.003 298.133V299.532C589.003 300.817 587.979 301.989 586.22 301.989ZM593.928 303.444H596.039V296.756C596.039 295.294 597.064 294.277 598.264 294.277C599.437 294.277 600.249 295.054 600.249 296.233V303.444H602.354V296.53C602.354 295.223 603.152 294.277 604.529 294.277C605.645 294.277 606.563 294.898 606.563 296.367V303.444H608.675V296.17C608.675 293.691 607.29 292.455 605.327 292.455C603.766 292.455 602.594 293.203 602.071 294.362H601.958C601.485 293.175 600.489 292.455 599.041 292.455C597.607 292.455 596.541 293.168 596.089 294.362H595.955V292.596H593.928V303.444ZM616.181 303.663C618.547 303.663 620.221 302.498 620.701 300.732L618.702 300.372C618.321 301.396 617.403 301.919 616.202 301.919C614.394 301.919 613.179 300.746 613.123 298.656H620.835V297.907C620.835 293.987 618.49 292.455 616.032 292.455C613.01 292.455 611.018 294.757 611.018 298.091C611.018 301.46 612.981 303.663 616.181 303.663ZM613.13 297.074C613.214 295.534 614.33 294.199 616.047 294.199C617.685 294.199 618.759 295.414 618.766 297.074H613.13ZM636.501 292.779H638.605C638.542 290.463 636.493 288.782 633.555 288.782C630.653 288.782 628.428 290.442 628.428 292.935C628.428 294.948 629.869 296.127 632.192 296.756L633.901 297.222C635.448 297.632 636.642 298.14 636.642 299.426C636.642 300.838 635.293 301.77 633.435 301.77C631.754 301.77 630.356 301.022 630.229 299.447H628.039C628.181 302.067 630.208 303.684 633.449 303.684C636.847 303.684 638.803 301.898 638.803 299.447C638.803 296.841 636.479 295.831 634.643 295.379L633.23 295.011C632.1 294.722 630.596 294.192 630.603 292.808C630.603 291.579 631.726 290.668 633.506 290.668C635.166 290.668 636.345 291.445 636.501 292.779ZM645.917 303.663C648.283 303.663 649.957 302.498 650.437 300.732L648.438 300.372C648.057 301.396 647.139 301.919 645.938 301.919C644.13 301.919 642.915 300.746 642.859 298.656H650.571V297.907C650.571 293.987 648.227 292.455 645.769 292.455C642.746 292.455 640.754 294.757 640.754 298.091C640.754 301.46 642.718 303.663 645.917 303.663ZM642.866 297.074C642.951 295.534 644.067 294.199 645.783 294.199C647.421 294.199 648.495 295.414 648.502 297.074H642.866ZM657.59 303.663C659.956 303.663 661.63 302.498 662.11 300.732L660.112 300.372C659.73 301.396 658.812 301.919 657.611 301.919C655.803 301.919 654.588 300.746 654.532 298.656H662.245V297.907C662.245 293.987 659.9 292.455 657.442 292.455C654.419 292.455 652.427 294.757 652.427 298.091C652.427 301.46 654.391 303.663 657.59 303.663ZM654.539 297.074C654.624 295.534 655.74 294.199 657.456 294.199C659.094 294.199 660.168 295.414 660.175 297.074H654.539ZM668.649 303.656C670.626 303.656 671.403 302.448 671.785 301.756H671.961V303.444H674.024V288.98H671.912V294.354H671.785C671.403 293.684 670.683 292.455 668.663 292.455C666.043 292.455 664.114 294.524 664.114 298.041C664.114 301.552 666.014 303.656 668.649 303.656ZM669.115 301.855C667.229 301.855 666.247 300.195 666.247 298.02C666.247 295.866 667.208 294.249 669.115 294.249C670.958 294.249 671.947 295.753 671.947 298.02C671.947 300.301 670.937 301.855 669.115 301.855ZM685.167 295.244C684.729 293.556 683.408 292.455 681.063 292.455C678.613 292.455 676.875 293.747 676.875 295.668C676.875 297.208 677.807 298.232 679.841 298.684L681.678 299.087C682.723 299.32 683.21 299.786 683.21 300.464C683.21 301.304 682.313 301.961 680.929 301.961C679.665 301.961 678.853 301.417 678.598 300.351L676.557 300.662C676.91 302.583 678.507 303.663 680.943 303.663C683.564 303.663 685.379 302.272 685.379 300.308C685.379 298.776 684.404 297.829 682.412 297.37L680.689 296.975C679.495 296.692 678.98 296.29 678.987 295.555C678.98 294.722 679.884 294.128 681.085 294.128C682.398 294.128 683.006 294.856 683.253 295.583L685.167 295.244Z" fill="#0A0C0D"/>
<g clip-path="url(#clip0)">
<path d="M554.573 174.477C549.885 174.477 546.049 178.312 546.049 183C546.049 187.688 549.885 191.524 554.573 191.524C559.261 191.524 563.096 187.688 563.096 183C563.096 178.312 559.261 174.477 554.573 174.477ZM554.573 176.608C555.958 176.608 557.236 177.034 558.302 177.78L549.352 186.73C548.606 185.664 548.18 184.385 548.18 183C548.18 179.484 551.057 176.608 554.573 176.608ZM554.573 189.393C553.188 189.393 551.909 188.967 550.843 188.221L559.793 179.271C560.539 180.337 560.965 181.615 560.965 183C560.965 186.516 558.089 189.393 554.573 189.393Z" fill="#C92327"/>
</g>
<g clip-path="url(#clip1)">
<path d="M562.031 238.76H555.638V232.367C555.638 231.728 555.212 231.302 554.573 231.302C553.933 231.302 553.507 231.728 553.507 232.367V238.76H547.114C546.475 238.76 546.049 239.186 546.049 239.826C546.049 240.465 546.475 240.891 547.114 240.891H553.507V247.284C553.507 247.923 553.933 248.349 554.573 248.349C555.212 248.349 555.638 247.923 555.638 247.284V240.891H562.031C562.67 240.891 563.096 240.465 563.096 239.826C563.096 239.186 562.67 238.76 562.031 238.76Z" fill="#007115"/>
</g>
<path d="M734.609 25.716H733.358L730.775 27.4312V28.7025L733.297 27.0276H733.358V36.0479H734.609V25.716ZM741.253 25.2317H740.163L736.834 37.6017H737.923L741.253 25.2317ZM746.135 36.1891C748.138 36.1891 749.626 34.9329 749.626 33.2429C749.626 31.9312 748.849 30.9778 747.548 30.7608V30.6801C748.592 30.3623 749.243 29.5047 749.243 28.3393C749.243 26.8763 748.088 25.5747 746.176 25.5747C744.39 25.5747 742.906 26.6745 742.846 28.2989H744.057C744.102 27.2698 745.081 26.6644 746.155 26.6644C747.296 26.6644 748.032 27.3555 748.032 28.3998C748.032 29.4895 747.179 30.1958 745.954 30.1958H745.126V31.3057H745.954C747.523 31.3057 748.395 32.1028 748.395 33.2429C748.395 34.3376 747.442 35.0792 746.115 35.0792C744.919 35.0792 743.971 34.4638 743.895 33.4649H742.624C742.7 35.0893 744.132 36.1891 746.135 36.1891Z" fill="#2F3435"/>
<defs>
<filter id="filter0_d" x="0" y="0" width="370" height="170" filterUnits="userSpaceOnUse" color-interpolation-filters="sRGB">
<feFlood flood-opacity="0" result="BackgroundImageFix"/>
<feColorMatrix in="SourceAlpha" type="matrix" values="0 0 0 0 0 0 0 0 0 0 0 0 0 0 0 0 0 0 127 0"/>
<feOffset dy="1"/>
<feGaussianBlur stdDeviation="2.5"/>
<feColorMatrix type="matrix" values="0 0 0 0 0 0 0 0 0 0 0 0 0 0 0 0 0 0 0.3 0"/>
<feBlend mode="normal" in2="BackgroundImageFix" result="effect1_dropShadow"/>
<feBlend mode="normal" in="SourceGraphic" in2="effect1_dropShadow" result="shape"/>
</filter>
<filter id="filter1_d" x="526.159" y="1.86905" width="244.349" height="363.683" filterUnits="userSpaceOnUse" color-interpolation-filters="sRGB">
<feFlood flood-opacity="0" result="BackgroundImageFix"/>
<feColorMatrix in="SourceAlpha" type="matrix" values="0 0 0 0 0 0 0 0 0 0 0 0 0 0 0 0 0 0 127 0"/>
<feOffset dy="0.710317"/>
<feGaussianBlur stdDeviation="1.42063"/>
<feColorMatrix type="matrix" values="0 0 0 0 0 0 0 0 0 0 0 0 0 0 0 0 0 0 0.3 0"/>
<feBlend mode="normal" in2="BackgroundImageFix" result="effect1_dropShadow"/>
<feBlend mode="normal" in="SourceGraphic" in2="effect1_dropShadow" result="shape"/>
</filter>
<clipPath id="clip0">
<path d="M546.049 174.477H563.096V191.524H546.049V174.477Z" fill="white"/>
</clipPath>
<clipPath id="clip1">
<path d="M546.049 231.302H563.096V248.349H546.049V231.302Z" fill="white"/>
</clipPath>
</defs>
</svg>
